<?xml version="1.0" encoding="UTF-8"?>
<svg fill="none" viewBox="0 0 162 46" xmlns="http://www.w3.org/2000/svg">
<g clip-path="url(#c)">
<g clip-path="url(#b)">
<g clip-path="url(#a)">
<path d="m30.965 16.412c-0.1407 0.2312 0.1106 0.3719 0.3116 0.4221 0.2642 0.0563 0.5396 0.0246 0.784-0.0904 0.1206-0.0603 0.5126-0.2312 0.5327-0.3719 0.0905-0.6131-0.5729-1.0051-1.0554-1.1961-0.4976-0.1294-1.02-0.1294-1.5177 0-0.1136 0.0288-0.2166 0.0895-0.2968 0.175-0.0801 0.0855-0.1341 0.1922-0.1555 0.3074 0.0052 0.0568 0.0244 0.1113 0.056 0.1587s0.0746 0.0862 0.1249 0.1127c0.1797 0.0957 0.3795 0.1474 0.583 0.1508 0.6835 0 1.5981-0.4121 2.1007 0.2312-0.4843-0.1531-1.0086-0.1172-1.4675 0.1005z" fill="#FCFDF5"/>
<path d="m30.915 10.582c0.7839-0.59302-0.1307-2.0906-1.0052-1.4675-0.8744 0.62317 0.181 1.8796 1.0052 1.4675z" fill="#FCFDF5"/>
<path d="m21.115 10.461c-0.1973 0.0728-0.3612 0.2151-0.4611 0.4001s-0.129 0.4001-0.0817 0.605c0.0305 0.1433 0.092 0.2782 0.1801 0.3952s0.2007 0.2134 0.33 0.2823c0.1292 0.069 0.272 0.1088 0.4183 0.1168s0.2925-0.0161 0.4285-0.0706c0.8644-0.4624 0.1307-2.0304-0.8141-1.7288z" fill="#FCFDF5"/>
<path d="m12.23 35.589c-0.0199-0.2576-0.0199-0.5163 0-0.7739v-0.2312-0.1005c0.0603-0.6433 0.1407-1.3871 0.2211-2.0605-0.433 1.217-0.6606 2.4976-0.6734 3.7893-0.4565-2.6483-0.221-5.3697 0.6835-7.9002-2.0111 1.3718-3.6319 3.242-4.704 5.4276-0.38327 0.6449-0.7192 1.3167-1.0051 2.0102l-0.15077 0.5026c-0.81896 2.0348-0.81896 4.3075 0 6.3423 0.21779 0.4962 0.55629 0.9299 0.98466 1.2617s0.93298 0.5511 1.4678 0.638c-0.40926-0.1474-0.77105-0.4027-1.0471-0.7389s-0.45601-0.7407-0.52091-1.1709c-0.13586-0.7774-0.01595-1.578 0.34174-2.2816-0.13079 0.8598-0.05499 1.7384 0.22113 2.5631 0.19294 0.4239 0.5089 0.7799 0.90682 1.0219s0.85942 0.3587 1.3246 0.335c-0.0487-0.7003-0.0319-1.4036 0.0502-2.1007-0.0039 0.7167 0.2099 1.4177 0.6132 2.0102 0.503 0.1061 1.0275 0.0276 1.4775-0.2211 0.197-0.1685 0.3569-0.3762 0.4693-0.6098 0.1125-0.2336 0.1752-0.488 0.184-0.7471 0.0658-1.4175-0.0354-2.8377-0.3015-4.2316-0.1709-0.9247-0.4322-1.8393-0.5428-2.7339z" fill="#FCFDF5"/>
<path d="m19.889 43.288-0.1407-0.1005c-0.5133-0.3542-1.1082-0.5721-1.7288-0.6332h-1.0051c-0.3346-0.0247-0.6706-0.0247-1.0051 0-0.2762-0.0087-0.5478 0.0724-0.774 0.2312-0.1694 0.1657-0.2909 0.374-0.3518 0.603-0.0897 0.2502-0.0897 0.5238 0 0.774 0.0556 0.1068 0.1325 0.2011 0.2258 0.2771s0.2012 0.1322 0.317 0.1651c0.3279 0.0949 0.6647 0.1556 1.0051 0.181v-0.4724c-0.0157-0.1706-0.0157-0.3421 0-0.5127 0.0192-0.072 0.0662-0.1334 0.1307-0.1708-0.01 0.1774-0.01 0.3553 0 0.5327 0.0198 0.2013 0.0602 0.4 0.1206 0.593h1.3468 0.2714v-0.5428c-0.0103-0.1962 0.01-0.3929 0.0603-0.5829 0 0 0-0.1106 0.0905-0.0603 0.1146 0.1989 0.1769 0.4237 0.1809 0.6533v0.5026c0.4782-0.0044 0.9503-0.1071 1.3871-0.3016 0.1508-0.1306 0.191-0.2211 0.191-0.3216 0.0015-0.3027-0.1137-0.5943-0.3217-0.8142z" fill="#FCFDF5"/>
<path d="m3.5657 32.081c-1.3114-2.1841-1.7663-4.777-1.2765-7.2771-0.73683 1.1812-1.1629 2.5296-1.2384 3.9197-0.075566 1.3901 0.20178 2.7767 0.80623 4.0308 0.32308 0.6361 0.69263 1.2475 1.1056 1.8293 0.61535 0.9336 1.3953 1.7476 2.3017 2.4022 0.2883-0.8287 0.64465-1.6322 1.0654-2.4022-1.0786-0.6421-2.0183-1.493-2.7641-2.5027z" fill="#FCFDF5"/>
<path d="m30.05 23.015c-0.434 0.1506-0.8817 0.2583-1.3368 0.3216 0.3499 0.3312 0.6152 0.7413 0.774 1.1961-0.3771-0.4526-0.8293-0.8368-1.3368-1.1357-1.381 0.0711-2.7656-3e-3 -4.1311-0.2212 0.3044 0.4711 0.6402 0.9211 1.0052 1.3469 0.6113 0.6278 1.3522 1.1149 2.171 1.4273 1.0051 0.2613 3.0857 0.211 3.7189-0.2815 0.6333-0.4925 0.6232-0.8242 0.5629-1.1257-0.2592-0.6754-0.7711-1.2233-1.4273-1.5278z" fill="#FCFDF5"/>
<path d="m30.221 27.156c-0.9769 0.3995-2.0486 0.5077-3.0857 0.3116-1.6412-0.3627-3.1526-1.1653-4.3722-2.3218-0.3952-0.3595-0.8114-0.6951-1.2464-1.0052-0.728-0.4908-1.5106-0.8955-2.3319-1.2061 0.1006 0.1106 0.2011 0.2312 0.3116 0.3417 0.4897 0.4917 0.8221 1.118 0.9549 1.7992-0.5203-0.8464-1.2036-1.581-2.0102-2.161-0.2525-0.1935-0.5297-0.3524-0.8242-0.4724-0.0344 0.0413-0.0601 0.089-0.0757 0.1404s-0.0207 0.1054-0.0151 0.1588 0.0219 0.1051 0.0478 0.1521c0.026 0.047 0.0611 0.0884 0.1033 0.1216 0.7813 0.6432 1.4593 1.4025 2.0102 2.2515-0.2412-0.2815-0.4925-0.5428-0.7639-0.8041-0.4348-0.3843-0.8912-0.7433-1.367-1.0755-0.5528-0.3417-0.8744-0.201-1.4272 0.8041-0.5629 1.0554-1.2162 2.0102-1.7188 3.136-0.0703 0.1407-0.1407 0.2914-0.201 0.4322l-0.5227 1.2463c-0.8555 1.9514-1.1747 4.0957-0.9247 6.2116 0.3418 2.3721 1.2062 3.4275 1.4474 4.4929 0.0704 0.3116 0.1407 0.6332 0.1809 0.9448 0.0016 0.4592 0.0487 0.9171 0.1407 1.367 0.0151 0.0441 0.0431 0.0826 0.0805 0.1105 0.1608 0.1106 0.1909-0.1407 0.1909-0.2311 0.0069-0.5457-0.0368-1.0908-0.1306-1.6283-0.1106-0.4624-0.2513-0.9247-0.392-1.377-0.0737-0.248-0.1542-0.4992-0.2413-0.7539-0.1608-0.4925-0.3417-1.0051-0.5327-1.4674l0.201 0.2814c0.4223 0.6408 0.7601 1.3333 1.0052 2.0605 0.149 0.3562 0.2733 0.7222 0.3719 1.0956 0 0.1809 0 0.3719 0.0703 0.5628 0.0704 0.191 0 0.8443 0 1.0051 0.0256 0.1147 0.0939 0.2153 0.191 0.2815 0.1135 0.0622 0.246 0.0801 0.3719 0.0502 0.6123-0.0871 1.2318-0.114 1.8494-0.0804 0.1972 0.0195 0.3958 0.0195 0.593 0 0.4328-1.0753 0.7986-2.1763 1.0956-3.2968 0.5502-1.8382 0.8875-3.7335 1.0051-5.6487 0.0132-0.9652-0.0778-1.929-0.2714-2.8747-0.3133-1.5844-0.9237-3.0953-1.7991-4.4526-0.1307-0.2212-0.2614-0.4523-0.4021-0.6735 0.392 0 0.6333 0.4322 0.8142 0.784 1.0196 2.0206 2.1608 3.9775 3.4174 5.8599-0.6706-0.6802-1.2856-1.413-1.8394-2.1912 0 0.1508 0 0.3317 0.2412 1.7992 0 0.2211 0.0804 0.4523 0.1106 0.6834 0.139 0.9988 0.1828 2.0084 0.1307 3.0154-0.04 0.9733-0.161 1.9416-0.3619 2.8947-0.1487 0.6267-0.3436 1.2415-0.5829 1.8394-0.2212 0.6232-0.4524 1.6987-0.6936 2.3218 0-0.0804 0.7036 0.0804 0.7941 0.0905 0.3326 0.0562 0.6724 0.0562 1.0051 0 0.6477-0.0977 1.2657-0.338 1.8092-0.7036 1.8843-1.1971 3.3028-3.0022 4.0205-5.116 0.4597-1.2562 0.6448-2.5963 0.5427-3.9301 0.2889 1.2726 0.2681 2.5959-0.0607 3.8587-0.3289 1.2628-0.9561 2.4282-1.8289 3.3983-0.1407 0.1608-0.2915 0.3216-0.4523 0.4724 0.5368-0.4016 1.0318-0.8562 1.4775-1.3569l0.1407-0.2312 0.3518-0.5528c0.3218-0.5263 0.6007-1.0775 0.8343-1.6484 0.0804-0.191 0.1508-0.3719 0.2211-0.5629 0.3505-0.8373 0.3827-1.7739 0.0905-2.6334-0.1646-0.4239-0.3629-0.834-0.593-1.2262l-0.0905-0.1608c-0.4572-0.7588-0.9856-1.4723-1.578-2.1309-0.4624-0.4824-0.8544-1.0051-1.2966-1.5479-0.4423-0.5427-1.0956-1.1056-1.6183-1.7187-0.1247-0.1049-0.2302-0.2307-0.3116-0.3719 0.4624 0.2412 0.8644 0.593 1.3268 0.8342 1.6403 0.969 3.5613 1.3518 5.4477 1.0856 0.5292-0.086 1.032-0.2907 1.4707-0.5988s0.8019-0.7117 1.0622-1.1803c0.0804-0.1307 0.3719-0.6634 0.201-0.9348-0.0583-0.073-0.1299-0.1344-0.211-0.1809-0.0961 0.455-0.2838 0.8857-0.5516 1.2658-0.2679 0.3802-0.6103 0.7019-1.0064 0.9455z" fill="#FCFDF5"/>
<path d="m29.407 28.362v2.8345c-0.0808 1.2807-0.2896 2.5501-0.6232 3.7893-0.3506 1.3637-0.9356 2.656-1.7288 3.8194-0.446 0.6245-0.8171 1.2992-1.1056 2.0102-0.0634 0.1797-0.1105 0.3647-0.1407 0.5529 0 0 0 0.1005-0.0503 0.1608-0.2714 1.2061 0 3.1359 1.7389 3.1359h3.2867c-0.7223-0.238-1.3865-0.625-1.9499-1.1357 1.1257 0.3216 2.1107 1.3267 3.347 1.0051 0.0299-0.3578-0.0503-0.7162-0.23-1.027s-0.4501-0.5593-0.7751-0.7119c-0.2131-0.1493-0.4424-0.274-0.6835-0.3719-0.8615-0.3708-1.8319-0.3996-2.7138-0.0804 0.9781-1.6873 1.7412-3.4904 2.2715-5.3673 0.1307-0.5126 0.2513-1.0051 0.3518-1.5479 0.0048-0.0703 0.0048-0.1408 0-0.2111 0.1589-0.8298 0.2629-1.6692 0.3116-2.5128-0.0058-1.5363-0.1641-3.0682-0.4724-4.5732-0.2741 0.0907-0.5525 0.1679-0.8342 0.2311z" fill="#FCFDF5"/>
<path d="m12.722 5.1743c-0.4094-0.35226-0.9193-0.56677-1.4574-0.61312 0.4925-1.0051 1.759-0.60307 2.6334-0.63322-0.264-0.20836-0.5678-0.36044-0.8928-0.44687s-0.6642-0.10539-0.9968-0.05569c-1.0015 0.14095-1.9131 0.65416-2.553 1.4373-1.0051 1.1056-1.96 2.2816-3.0154 3.337-1.2928 1.1954-2.5018 2.4782-3.6184 3.8395-0.17256 0.2646-0.26445 0.5737-0.26445 0.8895 0 0.3159 0.09189 0.625 0.26445 0.8896-0.00571-0.0636-0.00571-0.1275 0-0.191 0.09961-0.4049 0.25523-0.794 0.46236-1.1559 0.00905 0.4669 0.12092 0.926 0.32766 1.3447s0.50325 0.7866 0.86843 1.0777c0 0-1.4072-2.5128-0.22113-3.729 0.46363-0.5058 0.98288-0.9576 1.5479-1.3469l0.28144-0.18092c-0.21522 0.23977-0.37621 0.52311-0.47201 0.83071-0.09581 0.3076-0.12416 0.6323-0.08314 0.9519 0.04102 0.3195 0.15045 0.6265 0.32083 0.8999 0.17039 0.2735 0.39772 0.507 0.66652 0.6846 0.18686 0.1375 0.38527 0.2586 0.59302 0.3619 1.3613 0.5856 2.8928 0.6394 4.2918 0.1507 0.6031-0.1809 1.0654-0.7638 1.7288-0.7337 0.382 0.2714 0.6131 0.7337 1.0051 1.0051 0.0638-2.1227-0.0776-4.2467-0.4221-6.3423-0.1367-0.82842-0.4788-1.6094-0.9951-2.2716z" fill="#FA6C41"/>
<path d="m29.699 13.316c-0.3945-0.0968-0.7636-0.2769-1.0826-0.5283s-0.5805-0.5682-0.7668-0.9291c-0.1918-0.389-0.3531-0.7922-0.4825-1.2061-0.4121-1.3168-0.583-2.7038-0.8644-4.0205-0.0892-0.3006-0.1399-0.61133-0.1508-0.92471 0.0098-0.2304 0.0985-0.45043 0.2513-0.62318v0.40205c0.0076 0.48225 0.0751 0.96168 0.201 1.4273 0.1006 0.4724 0.2111 0.94481 0.3116 1.4273 0.1873 1.2843 0.6062 2.5239 1.2363 3.6586 0.9448 1.176 2.5832 1.2162 3.8898 1.7389 0.1924-0.9931 0.2398-2.0087 0.1407-3.0154-0.0743-1.0728-0.5019-2.0908-1.2161-2.8947-0.2367-0.29837-0.5454-0.53154-0.8971-0.6775s-0.7348-0.19991-1.1132-0.15675c-0.2875 0.10927-0.5359 0.30173-0.7136 0.55281-0.1005 0.12062-0.191 0.24123-0.2915 0.3518-0.1005 0.11056-0.1508 0.21107-0.2412 0.22112-0.0905 0.01005-0.0503-0.30153 0-0.37189 0.0754-0.16911 0.1772-0.32517 0.3015-0.46236l0.2513-0.25128c0.0843-0.06574 0.1617-0.13982 0.2312-0.22112 0.0044-0.00943 0.0068-0.01973 0.0068-0.03016s-0.0024-0.02073-0.0068-0.03015c-0.3399-0.14078-0.6936-0.24522-1.0554-0.31159-0.1115-0.00838-0.2156-0.05866-0.2915-0.14071-0.2211-0.24123 0-0.61312 0.2211-0.78399 0.0906-0.07604 0.1882-0.14334 0.2915-0.20103l0.2915-0.08041v0.14072c0.0111 0.00989 0.0254 0.01536 0.0402 0.01536s0.0292-0.00547 0.0402-0.01536c0.3233-0.12566 0.6819-0.12566 1.0051 0 0.5126 0.16082 1.0554 0.51261 1.0051 1.1056 0.5201 0.41814 0.9982 0.88607 1.4273 1.3971-0.2956-1.286-0.9189-2.4737-1.8092-3.4476-0.9758-1.0044-2.2408-1.679-3.6184-1.9298-3.6602-0.58369-7.405 0.25806-10.463 2.352-0.136 0.10762-0.2606 0.22886-0.3719 0.36184-0.794 1.3469-0.5629 3.0154-0.583 4.4527v1.4575c0 3.2565-0.5025 5.0256-0.0904 6.7544 0.1308 0.5238 0.3593 1.0183 0.6734 1.4574 1.0557 1.6088 2.6534 2.7857 4.5029 3.3169 0.5271 0.1941 1.0351 0.4363 1.5178 0.7237 2.0102 1.2865 3.0153 2.8042 4.6436 3.3369 0.308 0.1081 0.6239 0.1921 0.9448 0.2513 0.9657 0.2503 1.9793 0.2503 2.945 0 0.3226-0.0886 0.6016-0.2924 0.784-0.5729-0.578 0.2607-1.2053 0.3944-1.8394 0.392-0.3179-0.0111-0.6342-0.0515-0.9448-0.1206l-0.2915-0.0704c-0.5286-0.1345-1.041-0.3266-1.5277-0.5729-0.3156-0.133-0.6184-0.2945-0.9046-0.4824-0.7817-0.5803-1.4611-1.2869-2.0103-2.0907-0.4221-0.5227-0.8141-1.0654-1.2061-1.6082-0.3923-0.5305-0.7102-1.1121-0.9448-1.7288 0.4306 0.2557 0.8259 0.5666 1.176 0.9247 0.7181 0.5868 1.5529 1.0139 2.4488 1.2531 0.896 0.2392 1.8326 0.2848 2.7476 0.134 0.4504-0.0597 0.8847-0.2077 1.2779-0.4353 0.3932-0.2277 0.7377-0.5306 1.0138-0.8915 0.3094-0.4717 0.4736-1.0239 0.4724-1.5881l-0.5227-0.2311c-0.0839 0.2319-0.2328 0.4348-0.4288 0.5844-0.1961 0.1497-0.431 0.2399-0.6768 0.2599 0.2078-0.0925 0.3918-0.231 0.5381-0.4052 0.1463-0.1741 0.251-0.3793 0.3062-0.5999-0.2404-0.125-0.4721-0.2661-0.6935-0.4222l-0.3116-0.191c-0.1282 0.1619-0.2943 0.2897-0.4837 0.3721-0.1893 0.0824-0.396 0.1169-0.6018 0.1003 0.1792-0.0451 0.3478-0.1252 0.4962-0.2356 0.1483-0.1104 0.2734-0.2489 0.3682-0.4076-0.2601-0.1711-0.4831-0.3928-0.6558-0.6518-0.1726-0.259-0.2914-0.5501-0.3494-0.8559-0.0296-0.3174 0.0267-0.6369 0.1628-0.9251 0.1362-0.2882 0.3472-0.5346 0.6112-0.7133 0.6122-0.3561 1.3025-0.5562 2.0102-0.5829 0.7156-0.0894 1.4419 0.0184 2.1007 0.3116 0.2498 0.1056 0.4756 0.2607 0.6639 0.4559 0.1883 0.1951 0.3351 0.4264 0.4317 0.6798 0.0405 0.4235-0.0064 0.8508-0.1378 1.2553-0.1314 0.4046-0.3445 0.7779-0.6261 1.0967 0.2357 0.2378 0.5504 0.3809 0.8845 0.4021-0.1813 0.0489-0.3712 0.0562-0.5557 0.0214s-0.3587-0.1109-0.5097-0.2225c-0.1789 0.1797-0.3779 0.3382-0.593 0.4724-0.0514 0.034-0.1052 0.0642-0.1609 0.0905 0.166 0.1669 0.3746 0.2852 0.6031 0.3417-0.2866 0.0171-0.5703-0.0645-0.8041-0.2311l-0.2312 0.1407c-0.0355 0.8413-0.116 1.6801-0.2412 2.5128 0.7031 0.2242 1.4615 0.2029 2.151-0.0603 0.258-0.1139 0.5011-0.259 0.7236-0.4322 0.0604 0 0.1106-0.1106 0.1609-0.1608-0.0494-0.0285-0.0902-0.0696-0.1185-0.119-0.0282-0.0495-0.0429-0.1055-0.0424-0.1625 0-0.0879 0.035-0.1723 0.0972-0.2345s0.1466-0.0972 0.2345-0.0972c0.0458 2e-4 0.091 0.0102 0.1326 0.0293 0.0416 0.019 0.0786 0.0468 0.1087 0.0813 0.0292-0.0329 0.0529-0.0702 0.0703-0.1106 0.2885-0.4641 0.4958-0.9739 0.6131-1.5076-0.0879 0-0.1723-0.035-0.2345-0.0972s-0.0971-0.1466-0.0971-0.2345c-1e-4 -0.0431 0.0086-0.0858 0.0254-0.1255s0.0413-0.0756 0.0723-0.1056c0.0309-0.03 0.0676-0.0535 0.1078-0.069 0.0402-0.0156 0.0831-0.0229 0.1261-0.0216 0.0362-0.0103 0.0745-0.0103 0.1106 0 0.101-1.0471-0.1772-2.0957-0.784-2.955-1.186-1.2765-2.9349-1.759-4.5632-2.2314zm-1.1559-4.2416c0.088-0.19568 0.2185-0.36934 0.3819-0.50841s0.3557-0.24007 0.5629-0.29568c0.351-6.3e-4 0.6976 0.07763 1.0142 0.22899s0.5952 0.37195 0.8151 0.64546c0.4055 0.50772 0.5958 1.1542 0.53 1.8006-0.0657 0.6464-0.3823 1.2413-0.8818 1.657-0.3381 0.1832-0.7328 0.2322-1.1054 0.1372-0.3727-0.095-0.6957-0.3271-0.9048-0.6498-0.344-0.4137-0.565-0.9156-0.6378-1.4487-0.0729-0.5331 0.0053-1.0759 0.2257-1.5667zm-10.232-1.377c0.0936-0.20467 0.2349-0.3839 0.4121-0.52266 0.3653-0.34091 0.8154-0.57761 1.3033-0.68545 0.4879-0.10783 0.9958-0.08286 1.4708 0.07233 0.2312 0.07704 0.4388 0.21199 0.6031 0.39199 0.1809 0.22113 0.3719 0.59302 0 0.73374-0.1159 0.02532-0.2359 0.02532-0.3518 0-0.4751-0.03501-0.9522-0.03501-1.4273 0h-0.211c-0.5529 0.10051-1.0956 0.27138-1.6484 0.35179-0.2111 0.05026-0.2011-0.21107-0.1508-0.34174zm-0.8845 2.6133c-0.2309 0.3107-0.4232 0.6482-0.5729 1.0051-0.0786 0.1788-0.1424 0.3637-0.191 0.5529 0 0.0502 0 0.2412-0.0704 0.2713-0.0703 0.0302-0.0703-0.0804-0.0603-0.1306 0.0478-0.6567 0.2561-1.2915 0.6066-1.8488 0.3505-0.55735 0.8325-1.0201 1.4037-1.3475 0.4818-0.35354 1.0526-0.56586 1.6484-0.61312-0.1508 0-0.392 0.18092-0.5227 0.24123-0.1776 0.08854-0.3489 0.18929-0.5126 0.30153-0.6687 0.41066-1.255 0.94241-1.7288 1.568zm3.9099 8.3324c-0.2306 0.0146-0.4548 0.0821-0.6552 0.1971s-0.3717 0.2746-0.5007 0.4663c-0.1204 0.1779-0.1994 0.3806-0.2312 0.593-0.0099 0.107-0.0099 0.2147 0 0.3217v0.2814s-0.0603 0-0.0904-0.0703c-0.1562-0.2396-0.2351-0.5212-0.2261-0.807s0.1054-0.562 0.2763-0.7912c0.1117-0.148 0.2538-0.2704 0.4168-0.3588s0.3431-0.1409 0.528-0.1538c0.2159-0.0126 0.4319 0.0217 0.6333 0.1005 0 0 0.2412 0.0804 0.2211 0.1307-0.0201 0.0502-0.3216 0.0804-0.3719 0.0904zm0.6332-4.1611c-0.2816 0.171-0.596 0.2809-0.9228 0.3226-0.3269 0.0417-0.6588 0.0143-0.9744-0.0804-0.3155-0.0948-0.6076-0.2548-0.8574-0.4697-0.2498-0.2148-0.4516-0.4798-0.5924-0.7777-0.2504-0.6559-0.2539-1.3804-0.0098-2.0387 0.2441-0.6582 0.7191-1.2054 1.3365-1.5395 1.2966-0.64328 2.7239 0.46238 3.0656 1.7087 0.1393 0.5286 0.1138 1.0871-0.073 1.6008-0.1868 0.5138-0.526 0.9582-0.9723 1.2739zm1.2564-5.3272-0.0603-0.0603c-0.1608-0.15077-0.3417-0.27139-0.5226-0.4121-0.181-0.14072-0.3719-0.30154-0.5629-0.4322l-0.1508-0.10052s-0.1105-0.05025-0.1407-0.09046c0.1079-0.0216 0.2192-0.02024 0.3266 0.00401 0.1073 0.02424 0.2084 0.07082 0.2966 0.13671 0.1675 0.09551 0.3257 0.20656 0.4724 0.33169 0.1826 0.15383 0.3184 0.35581 0.392 0.58297 0 0-0.0101 0.05025-0.0503 0.0402zm0.7438 9.6894c0-0.0431 0.0086-0.0858 0.0254-0.1255s0.0414-0.0756 0.0723-0.1056c0.031-0.03 0.0676-0.0535 0.1078-0.069 0.0402-0.0156 0.0831-0.0229 0.1262-0.0216 0.0853 0 0.1671 0.0339 0.2274 0.0942 0.0603 0.0604 0.0942 0.1422 0.0942 0.2275 0.0014 0.043-0.0059 0.086-0.0215 0.1261-0.0156 0.0402-0.039 0.0769-0.069 0.1078-0.03 0.031-0.066 0.0556-0.1057 0.0724-0.0396 0.0167-0.0823 0.0254-0.1254 0.0254-0.088 0-0.1723-0.035-0.2345-0.0972s-0.0972-0.1466-0.0972-0.2345zm0.6533 2.6736c-0.0853 0-0.1671-0.0339-0.2274-0.0942s-0.0942-0.1422-0.0942-0.2275c-0.0013-0.043 6e-3 -0.0859 0.0215-0.1261 0.0156-0.0402 0.0391-0.0769 0.0691-0.1078 0.03-0.031 0.0659-0.0555 0.1056-0.0723s0.0823-0.0255 0.1254-0.0254c0.088 0 0.1724 0.0349 0.2346 0.0971s0.0971 0.1466 0.0971 0.2345c0 0.0431-0.0086 0.0858-0.0254 0.1255s-0.0414 0.0756-0.0723 0.1056-0.0676 0.0535-0.1078 0.069c-0.0402 0.0156-0.0831 0.0229-0.1262 0.0216zm1.3067-1.4273c-0.0656 0-0.1297-0.0194-0.1843-0.0559-0.0545-0.0364-0.097-0.0882-0.1222-0.1488-0.0251-0.0606-0.0316-0.1273-0.0188-0.1917 0.0128-0.0643 0.0444-0.1234 0.0907-0.1698 0.0464-0.0464 0.1055-0.078 0.1699-0.0908 0.0643-0.0128 0.131-0.0062 0.1916 0.0189s0.1124 0.0676 0.1489 0.1221c0.0364 0.0546 0.0559 0.1187 0.0559 0.1843 0 0.088-0.035 0.1724-0.0972 0.2346s-0.1465 0.0971-0.2345 0.0971zm1.4574 1.1056c0 0.0853-0.0339 0.1672-0.0942 0.2275s-0.1421 0.0942-0.2274 0.0942c-0.0431 0.0013-0.086-6e-3 -0.1262-0.0216-0.0402-0.0155-0.0768-0.039-0.1078-0.069-0.0309-0.03-0.0555-0.0659-0.0723-0.1056s-0.0254-0.0824-0.0254-0.1255c0-0.0879 0.0349-0.1723 0.0971-0.2345s0.1466-0.0971 0.2346-0.0971c0.0431-1e-4 0.0857 0.0086 0.1254 0.0254s0.0756 0.0413 0.1056 0.0723c0.03 0.0309 0.0535 0.0676 0.0691 0.1078 0.0155 0.0402 0.0229 0.0831 0.0215 0.1261zm4.8447 0c-0.088 0-0.1724-0.0349-0.2346-0.0971s-0.0971-0.1466-0.0971-0.2345c0-0.088 0.0349-0.1724 0.0971-0.2346s0.1466-0.0971 0.2346-0.0971c0.0879 0 0.1723 0.0349 0.2345 0.0971s0.0972 0.1466 0.0972 0.2346c0 0.0879-0.035 0.1723-0.0972 0.2345s-0.1466 0.0971-0.2345 0.0971zm1.4071-1.4373c-0.0879 0-0.1723-0.0349-0.2345-0.0971s-0.0971-0.1466-0.0971-0.2346c0-0.0879 0.0349-0.1723 0.0971-0.2345s0.1466-0.0972 0.2345-0.0972c0.088 0 0.1724 0.035 0.2346 0.0972s0.0971 0.1466 0.0971 0.2345c0 0.088-0.0349 0.1724-0.0971 0.2346s-0.1466 0.0971-0.2346 0.0971z" fill="#FCFDF5"/>
<path d="m35.79 6.7322c-0.9728-0.98924-2.0104-1.9126-3.1058-2.7641-0.885-0.88583-1.8395-1.6992-2.8546-2.4324-0.4645-0.25403-0.9877-0.38128-1.5171-0.36892-0.5293 0.01235-1.046 0.16385-1.4982 0.43928 0.5294-0.09247 1.0725-0.07034 1.5927 0.0649s1.0053 0.38045 1.4226 0.71909c0.5312 0.44225 0.9981 0.95647 1.3871 1.5278 0.7438 1.4172 1.4072 2.8847 2.0806 4.3421l0.1608 0.36185 0.0905 0.18092c0.9319 1.6869 1.6093 3.5024 2.0102 5.3875 0.4485-1.0509 0.8214-2.1325 1.1157-3.2365 0.282-0.7113 0.3485-1.4899 0.1912-2.2388-0.1573-0.74885-0.5314-1.4349-1.0757-1.9727v-0.01006z" fill="#FCFDF5"/>
<path d="m14.451 18.03 3.337 2.0103c0.2752-0.9318 0.7431-1.7953 1.3734-2.5346 0.6302-0.7394 1.4088-1.3381 2.2852-1.7573 2.9249-1.2664 3.6888-4.2818 2.8546-7.7193-0.8343-3.4375-4.5733-3.5983-6.4629-2.8746-1.8897 0.72369-2.6033 0.15077-2.3721-0.33169 0.2312-0.48245-1.4775-0.39199-1.1861 0.71364 0.1632 1.6364 0.2304 3.2809 0.2011 4.9251 0.0703 0.583-0.1106 4.4828-0.1307 5.1964-0.0201 0.7137 0.1005 2.3721 0.1005 2.3721z" fill="#FA6C41"/>
<path d="m21.447 12.662c0.6439 0 1.1659-0.522 1.1659-1.1659 0-0.644-0.522-1.166-1.1659-1.166-0.644 0-1.166 0.522-1.166 1.166 0 0.6439 0.522 1.1659 1.166 1.1659z" fill="#FCFDF5"/>
<path d="m22.12 15.487c3.0857-1.6987 3.0153-4.4728 3.0153-6.0307 0 0-0.1005 2.6937-1.4373 4.0707-0.6091 0.5818-1.1396 1.2407-1.578 1.96z" fill="#FA6C41"/>
<path d="m26.603 5.0536c0.1307-0.51261 1.9298-0.45231 2.4324-0.30154l-0.3116 0.22113c0.447-0.03509 0.8959 0.03793 1.3088 0.21287s0.7776 0.44667 1.0633 0.79225c1.2864 2.05 2.0716 4.3743 2.2917 6.7845 0 0.2995-0.1183 0.5869-0.3291 0.7996-0.2109 0.2127-0.4972 0.3335-0.7967 0.3362 0 0-2.3017-0.7036-2.8344-0.9247-0.6089-0.2068-1.1158-0.6382-1.4172-1.2062-0.3901-1.0132-0.7256-2.0466-1.0051-3.0957-0.0704-0.48245-0.4021-2.1811-0.5026-2.563-0.0291-0.35497 0.0049-0.71228 0.1005-1.0554z" fill="#FA6C41"/>
<path d="m30.453 10.813c0.5274 0 0.9549-0.4275 0.9549-0.95489 0-0.52735-0.4275-0.95486-0.9549-0.95486s-0.9549 0.42751-0.9549 0.95486c0 0.52739 0.4275 0.95489 0.9549 0.95489z" fill="#FCFDF5"/>
<path d="m23.397 22.904c0.45 0.8284 1.0603 1.5589 1.7954 2.1491 0.7351 0.5901 1.5803 1.0281 2.4864 1.2884 1.2309 0.2287 2.503 0.0113 3.5882-0.6131 0.1773-0.1932 0.2952-0.4334 0.3398-0.6918s0.0138-0.5242-0.0885-0.7656c-0.4139-0.5484-0.8674-1.0657-1.3569-1.5479l-3.2465 0.2915-3.5179-0.1106z" fill="#FA6C41"/>
<path d="m26.492 1.9076c2.3319 0.54276 5.0256 2.1208 5.5684 4.6336 0.8933 3.0786 1.9741 6.0996 3.2365 9.0461 0.9511-1.6745 1.6296-3.4897 2.0102-5.3774 0.1768-0.79411 0.1048-1.6234-0.2063-2.3751-0.3112-0.75172-0.8462-1.3894-1.5325-1.8263-0.9448-0.8443-3.7592-3.0857-4.503-3.8295-0.3745-0.39429-0.8272-0.7061-1.3291-0.91551-0.5019-0.20942-1.042-0.31182-1.5857-0.30068-0.6981 0.10894-1.3758 0.32241-2.0102 0.63322l0.3517 0.31159z" fill="#FA6C41"/>
<path d="m31.96 24.925c-0.1608-0.0603-0.2211-0.2312-0.4423 0.1709-0.2211 0.402-0.2814 1.3066-1.5679 1.2664h-0.2111c0 0.2513-0.2714 0.4222-0.8443 0.4423-2.6636 0.1206-5.4075-1.7791-6.6338-2.7942-0.5791-0.1976-1.1434-0.4361-1.6886-0.7137-1.568-0.8342-2.0102-0.6633-2.0102-0.6633 0.4808 0.284 0.8981 0.6638 1.2262 1.1156 0.3418 0.583 0.7036 1.3167 0.7036 1.3167 0.6332 2.0103 2.6234 4.0708 5.9704 5.4176 0.887-0.8775 1.864-1.6592 2.9148-2.3318 0.9705-0.3821 1.8453-0.9722 2.5631-1.7288 0.1928-0.2005 0.3022-0.4668 0.3059-0.7449 0.0038-0.2781-0.0984-0.5472-0.2858-0.7528z" fill="#DBD4D3"/>
<path d="m20.432 31.267c1.0949 3.2371 0.9806 6.7612-0.3217 9.9205 1.816-0.3169 3.4979-1.1631 4.8347-2.4324 1.2479-1.3363 2.0336-3.0381 2.2414-4.8547 0.0708 0.6054 0.0573 1.2177-0.0402 1.8193-0.181 0.5126-0.6534 1.9298-0.6534 1.9298l-0.4724 0.7639c0.6963-0.571 1.2969-1.2497 1.7791-2.0102 0.6332-1.1157-0.2714 1.0051-0.2714 1.0051l1.2665-2.3821c-0.2301 1.3346-0.5662 2.6488-1.0052 3.93-0.5427 1.3167-1.7187 3.4375-0.8443 4.3421 0.8745 0.9046 3.6989 0.8744 4.2718 0.8443 0.3812-0.0524 0.7345-0.2291 1.0051-0.5026 0 0 0.3216 0.8242 0.0804 1.0956-1.2506 0.335-2.5474 0.464-3.8395 0.3819-0.9549-0.0904-3.2265-0.4824-3.2265-0.4824-1.1366-0.6142-2.3195-1.1385-3.538-1.568-1.7087-0.5629-3.2063-1.0051-3.2063-1.0051 0.7139-1.4954 1.2568-3.0667 1.6182-4.6839 0.3159-1.5299 0.4408-3.093 0.3719-4.6537-0.0703-0.6332-0.0502-1.4574-0.0502-1.4574z" fill="#DBD4D3"/>
<path d="m14.562 43.057c0.6533 1.196 2.0102 1.2061 3.0857 1.2162 1.0792 0.0668 2.1472-0.2501 3.0154-0.8946 1.1357-0.784 0.4523 1.1559-0.1106 1.4474-1.2473 0.4153-2.5552 0.6192-3.8697 0.603-0.7438-0.1306-2.6636-0.3216-2.8344-0.7639-0.1709-0.4422 0.7136-1.6081 0.7136-1.6081z" fill="#DBD4D3"/>
<path d="m14.572 27.036c-1.7892 3.7692-1.5982 7.468-0.7539 8.6339 1.1845 1.9604 1.7972 4.2129 1.769 6.5032l-1.377 0.3417c-0.0472-1.2499-0.2498-2.489-0.6031-3.6888-0.686-1.2348-1.0813-2.6098-1.1558-4.0205 0.0146-1.212 0.1425-2.4201 0.3819-3.6083l0.8644-3.5079 0.8745-0.6533z" fill="#DBD4D3"/>
<path d="m6.4504 36.594c-0.87446 2.8344 0 5.4276 1.3066 5.9302-0.05978-0.637-0.03613-1.279 0.07036-1.9098 0 0 0.30153 1.95 1.1961 2.4726 0.38456 0.2953 0.8629 0.4417 1.3469 0.4121l0.0603-0.8041s0.3518 0.8242 1.0051 0.8845c0.6511-0.034 1.291-0.1837 1.8896-0.4422 0 0-0.4121 1.3368-0.4624 1.3468-0.5423 0.2052-1.1003 0.3666-1.6684 0.4825-0.6707 0.0129-1.3416-0.0072-2.0103-0.0603-0.65184-0.0928-1.274-0.3329-1.8191-0.7021-0.54514-0.3692-0.99894-0.8579-1.3269-1.4288-0.44438-1.2775-0.68189-2.6178-0.70358-3.9702 0.29712-0.7725 0.67088-1.5133 1.1157-2.2112z" fill="#DBD4D3"/>
<path d="m1.0127 29.498c0.07773 1.1275 0.44395 2.216 1.0635 3.1612 0.61955 0.9452 1.4716 1.7153 2.4745 2.2363 0.78399 0.3317 1.4976-0.9448 1.4976-0.9448l0.75384 0.7036-1.6283 3.0153c-0.80251-0.432-1.4967-1.0402-2.0303-1.779-0.9425-1.3679-1.7663-2.8138-2.4625-4.322-0.12075-0.7079-0.004135-1.4359 0.33168-2.0706z" fill="#DBD4D3"/>
<path d="m8.7722 31.438c-0.54315 0.7957-1.0109 1.6403-1.3971 2.5228 0.78798-0.7477 1.6949-1.3592 2.6837-1.8092 0 0 0.1306 4.8447 2.5329 5.106l-0.1006-2.9048 0.2312-3.7893 1.3569-3.8496 1.2062-0.9247s-1.5881 3.7692-1.2062 6.5132c0.2097-1.7696 0.7738-3.4788 1.6585-5.0256 1.3569-1.8997 1.769-3.7491 1.2966-4.6637-0.4724-0.9147-2.5631 2.553-3.2466 3.1761-0.6834 0.6232-3.6485 3.8999-3.6485 3.8999l-1.367 1.7489z" fill="#FA6C41"/>
<path d="m14.391 28.553c0.3619-1.377-0.7035-0.8242-0.7035-0.8242l1.2664-2.6032 1.1961-0.3518-0.1407 1.2966-1.1861 2.2414-0.4322 0.2412z" fill="#FA6C41"/>
<path d="m28.935 31.569s1.9399 1.1156 2.3721 2.0906c0 0-0.2915-2.6535-0.4322-4.4326-0.1408-1.779-0.5127-1.2966-0.7438-1.2865-0.2312 0.01-1.0655 0.0904-1.176 0.3015-0.1106 0.2111-0.0201 3.327-0.0201 3.327z" fill="#DBD4D3"/>
<path d="m27.518 17.417c-0.1307 0.9247 0.7136 1.3067 1.2865 1.8092 0.234 0.2982 0.3789 0.6565 0.4181 1.0335 0.0391 0.3771-0.0292 0.7575-0.197 1.0974-0.3649 0.4172-0.8192 0.7468-1.329 0.9643-0.5099 0.2176-1.0622 0.3174-1.616 0.2921-1.3468-0.1609 0.0905 0.5528 0.8644 0.4824 1.0856-0.1997 2.125-0.5984 3.0656-1.176 0.2714-0.3015 0.8645 0.6232 1.7289 0.6031 0.5717-0.0373 1.1185-0.2477 1.5679-0.6031 0 0-1.5478 0-1.7891-0.4824-0.1649-0.2858-0.2518-0.6099-0.2518-0.9398s0.0869-0.6541 0.2518-0.9398c0.4121-0.4322 1.3469-1.0956 1.4273-2.1409s-5.4276 0-5.4276 0z" fill="#DBD4D3"/>
<path d="m36.051 5.9382c-1.3807-0.95465-2.6785-2.0238-3.8798-3.1963-0.7533-0.89927-1.6885-1.6289-2.7439-2.1409-0.6375-0.2304-1.3307-0.25745-1.9841-0.077438-0.6535 0.18001-1.235 0.55824-1.6645 1.0826-2.5291-0.43495-5.1251-0.26969-7.5786 0.48245-1.1316 0.41336-2.2084 0.96356-3.2063 1.6384-0.5607-0.56708-1.2852-0.9439-2.0715-1.0773-0.7862-0.13344-1.5945-0.01677-2.3109 0.33355-1.4674 0.62317-2.372 2.0102-3.3369 3.1963-1.8365 2.4464-4.0284 4.6045-6.5031 6.4026-0.17087 0.1608-0.51261 0.2915-0.40205 0.593 0.28508 1.0672 0.73255 2.0842 1.3268 3.0154 0.51264 1.0411 1.1916 1.9917 2.0102 2.8143 1.4072 1.367 3.4978 1.6182 4.9452 2.9148 0.49862 0.3977 0.85196 0.9489 1.0051 1.568-0.06881 0.5923-0.27535 1.1603-0.60307 1.6585 1.4589-0.4424 2.7242-1.3675 3.5883-2.6234 0.599-1.0426 1.081-2.1483 1.4373-3.2968 0.2027 0.5952 0.5089 1.1498 0.9046 1.6384-0.0859 1.3003-0.4275 2.5709-1.0051 3.739-0.6563 1.1609-1.5299 2.1846-2.5731 3.0154-0.9194 0.797-1.7547 1.6861-2.4927 2.6535-0.73246 1.0109-1.4037 2.0648-2.0102 3.156 0 0-5.1864-1.0051-4.131-10.272-1.3489 1.1755-2.2595 2.7734-2.5832 4.5331-0.49546 2.6634 0.086576 5.4145 1.6182 7.649 0.50256 0.784 1.0654 1.5177 1.6283 2.2514 0.35716 0.3901 0.6927 0.7995 1.0051 1.2263 0.14873 0.3695 0.19391 0.7726 0.13067 1.1659 0.00154 0.4592 0.04867 0.9171 0.14072 1.367 0.17247 0.8851 0.5551 1.7159 1.1157 2.4223 1.4072 1.4675 2.5932 1.7389 6.3423 1.7891h14.544 6.5635c-0.0126-1.0388-0.3269-2.0515-0.9046-2.9148-0.9248-1.1258-3.0154-1.0051-3.0154-1.0051 0.5028-0.8514 0.9429-1.7382 1.3167-2.6535l0.2111-0.573c0.8484-2.2183 1.1918-4.5978 1.0051-6.9654-0.0732-1.2606-0.3764-2.4971-0.8946-3.6486 0.6408-0.4745 1.1551-1.0993 1.4977-1.8193 0.0517-0.1043 0.0815-0.2181 0.0876-0.3344s-0.0116-0.2326-0.0521-0.3418-0.1028-0.209-0.1833-0.2932c-0.0804-0.0842-0.1772-0.1511-0.2844-0.1965l-0.1709-0.0603c-0.1528-0.4762-0.4346-0.9007-0.8141-1.2263 0.0594-0.2722 0.2037-0.5185 0.412-0.7035 0.2695 0.0103 0.5393-0.0099 0.8041-0.0604 0.5495-0.1196 1.0678-0.3531 1.5215-0.6855 0.4536-0.3324 0.8324-0.7563 1.112-1.2443 0.573-1.1541 0.8065-2.4473 0.6734-3.729-0.02-0.1299-0.02-0.2621 0-0.392 0.0389-0.1382 0.1037-0.2678 0.191-0.3819 0.764-1.2312 1.3494-2.5645 1.7388-3.9602 0.4495-1.4048 0.7857-2.8433 1.0051-4.3019v-0.17088c-0.7785-0.71309-1.6083-1.3682-2.4826-1.96zm-21.972 7.8399c-0.3618-0.2613-0.593-0.7237-1.0051-1.0051-0.6634 0-1.1257 0.5528-1.7288 0.7337-1.3991 0.4887-2.9306 0.4349-4.2919-0.1508-0.20774-0.1032-0.40615-0.2243-0.59302-0.3618-0.26879-0.1776-0.49613-0.4111-0.66651-0.6846-0.17039-0.2734-0.27982-0.5804-0.32084-0.9-0.04102-0.3195-0.01266-0.6442 0.08314-0.9518s0.2568-0.59097 0.47201-0.83074l-0.28143 0.18092c-0.56238 0.37352-1.0815 0.80842-1.5479 1.2966-1.186 1.2162 0.22112 3.729 0.22112 3.729-0.34647-0.2903-0.62702-0.6511-0.82288-1.0584-0.19587-0.4074-0.30254-0.8518-0.3129-1.3037-0.21154 0.3777-0.36727 0.7839-0.46235 1.2062-0.00572 0.0635-0.00572 0.1274 0 0.191-0.17257-0.2646-0.26445-0.5737-0.26445-0.8896s0.09188-0.6249 0.26445-0.8895c1.1167-1.3613 2.3257-2.6442 3.6184-3.8396 1.0755-1.0051 2.0102-2.2314 3.0154-3.337 0.63134-0.80193 1.544-1.3337 2.553-1.4876 0.3326-0.04969 0.6718-0.03074 0.9968 0.05569 0.325 0.08644 0.6288 0.23852 0.8928 0.44687-0.8745 0-2.1409-0.34174-2.6334 0.63322 0.5381 0.04635 1.048 0.26086 1.4574 0.61313 0.526 0.67268 0.8719 1.4683 1.0051 2.3118 0.3178 2.0813 0.4356 4.1882 0.3518 6.292zm-8.8149 23.188c-0.90465-0.6487-1.6845-1.4558-2.3017-2.3822-0.41216-0.5753-0.78169-1.18-1.1056-1.8092-0.60445-1.2541-0.8818-2.6407-0.80623-4.0308 0.07557-1.3901 0.5016-2.7385 1.2384-3.9197-0.48978 2.5001-0.03495 5.093 1.2765 7.2771 0.74777 1.0025 1.6873 1.8464 2.7641 2.4826-0.41977 0.7636-0.77611 1.5603-1.0654 2.3822zm7.8098 5.5884c-9e-4 0.262-0.0568 0.5208-0.1642 0.7598-0.1074 0.2389-0.2637 0.4526-0.459 0.6273-0.45 0.2487-0.9744 0.3272-1.4775 0.2211-0.4033-0.5925-0.6171-1.2935-0.6131-2.0102-0.0822 0.6971-0.099 1.4004-0.0503 2.1007-0.47349 0.0274-0.94405-0.0908-1.3484-0.3387-0.40432-0.248-0.72298-0.6139-0.91314-1.0484-0.28272-0.8301-0.362-1.716-0.23118-2.5831-0.35769 0.7035-0.47761 1.5041-0.34174 2.2816 0.06577 0.4312 0.24726 0.8366 0.52514 1.1729 0.27789 0.3363 0.64176 0.5909 1.0529 0.7368-0.52969-0.0819-1.0309-0.2936-1.4588-0.6163-0.42793-0.3227-0.76932-0.7464-0.99368-1.2331-0.81896-2.0348-0.81896-4.3075 0-6.3423l0.15077-0.5026c0.28591-0.6935 0.62184-1.3654 1.0051-2.0102 1.0721-2.1857 2.6929-4.0558 4.704-5.4276-0.9046 2.5305-1.14 5.2519-0.6835 7.9002 0.0128-1.2917 0.2404-2.5723 0.6734-3.7893-0.0804 0.6734-0.1608 1.4172-0.2211 2.0605v0.1005 0.1508c-0.0199 0.2576-0.0199 0.5163 0 0.7739 0.1106 0.9448 0.3719 1.8595 0.5428 2.7842 0.2661 1.3938 0.3673 2.8141 0.3015 4.2315zm7.0358 1.9198c-0.4368 0.1945-0.9089 0.2972-1.387 0.3015v-0.5025c-0.0041-0.2296-0.0664-0.4544-0.181-0.6534 0-0.0502-0.0804 0-0.0904 0.0603-0.0503 0.1901-0.0707 0.3867-0.0603 0.583v0.5428h-0.2915-1.3469c-0.0604-0.193-0.1008-0.3918-0.1206-0.593-0.01-0.1775-0.01-0.3553 0-0.5328-0.0645 0.0375-0.1114 0.0989-0.1307 0.1709-0.0157 0.1705-0.0157 0.3421 0 0.5126v0.4724c-0.3404-0.0253-0.6772-0.086-1.0051-0.1809-0.1158-0.0329-0.2237-0.0891-0.317-0.1651-0.0933-0.0761-0.1701-0.1704-0.2257-0.2771-0.0898-0.2502-0.0898-0.5238 0-0.774 0.0608-0.229 0.1824-0.4373 0.3517-0.603 0.2262-0.1589 0.4978-0.24 0.774-0.2312 0.3346-0.0247 0.6705-0.0247 1.0051 0h1.0051c0.6207 0.0611 1.2155 0.279 1.7288 0.6332l0.1407 0.1005c0.1311 0.1043 0.2383 0.2354 0.3145 0.3844 0.0763 0.1491 0.1199 0.3127 0.1278 0.48-0.0704 0.0503-0.1106 0.1407-0.2915 0.2714zm10.654-11.76c-0.0487 0.8435-0.1528 1.6829-0.3116 2.5128 0.0047 0.0703 0.0047 0.1408 0 0.2111-0.1005 0.5226-0.2211 1.0051-0.3518 1.5479-0.5304 1.8768-1.2935 3.6799-2.2716 5.3673 0.882-0.3192 1.8523-0.2904 2.7138 0.0804 0.2411 0.0979 0.4704 0.2226 0.6835 0.3719 0.325 0.1526 0.5955 0.401 0.7752 0.7119 0.1796 0.3108 0.2599 0.6692 0.2299 1.027-1.2363 0.3015-2.2213-0.7036-3.347-1.0052 0.5552 0.4916 1.2051 0.8645 1.9097 1.0956h-3.2867c-1.6987 0-2.0103-1.9298-1.7389-3.136 0-0.0603 0-0.1105 0.0503-0.1608 0.0302-0.1881 0.0773-0.3731 0.1407-0.5528 0.2886-0.711 0.6597-1.3857 1.1056-2.0102 0.7932-1.1634 1.3782-2.4558 1.7288-3.8195 0.3336-1.2391 0.5424-2.5085 0.6232-3.7893v-2.8344c0.2985-0.0583 0.5937-0.1321 0.8845-0.2211 0.3069 1.5152 0.4618 3.0574 0.4624 4.6034zm1.2262-7.5484c0.1709 0.2714-0.1206 0.8041-0.201 0.9347-0.2604 0.4687-0.6235 0.8722-1.0622 1.1803-0.4387 0.3082-0.9415 0.5129-1.4707 0.5988-1.8865 0.2662-3.8074-0.1166-5.4478-1.0855-0.4623-0.2413-0.8644-0.593-1.3267-0.8343 0.0814 0.1412 0.1868 0.2671 0.3116 0.3719 0.5226 0.6131 1.0755 1.1861 1.6182 1.7188 0.5428 0.5327 0.8343 1.0654 1.2966 1.5479 0.594 0.6681 1.1224 1.3918 1.5781 2.161l0.0904 0.1608c0.2301 0.3922 0.4284 0.8023 0.593 1.2262 0.2923 0.8594 0.2601 1.7961-0.0904 2.6334-0.0704 0.191-0.1407 0.3719-0.2212 0.5629-0.2335 0.5709-0.5125 1.1221-0.8342 1.6484l-0.3518 0.5528-0.1407 0.2312c-0.4457 0.5007-0.9407 0.9553-1.4775 1.3569 0.1608-0.1508 0.3116-0.3116 0.4523-0.4724 0.8728-0.9701 1.5-2.1355 1.8288-3.3983s0.3497-2.5861 0.0608-3.8587c0.102 1.3338-0.083 2.6739-0.5428 3.93-0.7176 2.1139-2.1362 3.919-4.0204 5.1161-0.5436 0.3656-1.1615 0.6059-1.8093 0.7036-0.3326 0.0562-0.6724 0.0562-1.0051 0-0.0904 0-0.7639-0.1709-0.794-0.0905 0.2412-0.6232 0.4724-1.6986 0.6935-2.3218 0.2394-0.5979 0.4343-1.2127 0.583-1.8394 0.2008-0.9532 0.3219-1.9214 0.3618-2.8947 0.0521-1.007 0.0084-2.0167-0.1306-3.0154 0-0.2311-0.0704-0.4623-0.1106-0.6834-0.2412-1.4675-0.2915-1.6484-0.2412-1.7992 0.5537 0.7782 1.1688 1.5109 1.8393 2.1911-1.2565-1.8824-2.3977-3.8392-3.4174-5.8598-0.1809-0.3518-0.4221-0.7538-0.8141-0.784 0.1407 0.2211 0.2714 0.4523 0.402 0.6734 0.8754 1.3574 1.4859 2.8682 1.7992 4.4527 0.1936 0.9457 0.2846 1.9095 0.2714 2.8747-0.1177 1.9151-0.4549 3.8105-1.0051 5.6487-0.297 1.1205-0.6629 2.2215-1.0956 3.2968-0.1972 0.0195-0.3958 0.0195-0.593 0-0.6177-0.0337-1.2371-0.0067-1.8495 0.0804-0.1259 0.0299-0.2584 0.012-0.3718-0.0502-0.0971-0.0662-0.1654-0.1668-0.191-0.2815v-1.0051c0-0.1608 0-0.3819-0.0704-0.5629-0.0677-0.3813-0.1617-0.7574-0.2814-1.1257-0.2451-0.7272-0.5829-1.4197-1.0051-2.0605l-0.2011-0.2814c0.191 0.4824 0.3719 1.0051 0.5328 1.4675 0.0871 0.2546 0.1675 0.5059 0.2412 0.7538 0.1407 0.4523 0.2814 0.9147 0.392 1.377 0.0938 0.5376 0.1375 1.0827 0.1307 1.6283 0 0.0905 0 0.3417-0.191 0.2312-0.0374-0.0279-0.0654-0.0665-0.0804-0.1106-0.1144-0.4744-0.1784-0.9595-0.191-1.4474 0-0.3115-0.1106-0.6332-0.1809-0.9448-0.2413-1.0654-1.1057-2.0705-1.4474-4.4828-0.25-2.1159 0.0692-4.2603 0.9247-6.2116l0.5227-1.2464c0.0603-0.1407 0.1306-0.2915 0.201-0.4322 0.5026-1.0855 1.1559-2.0806 1.7188-3.1359 0.5528-1.0052 0.8744-1.1459 1.4272-0.8041 0.4758 0.3321 0.9322 0.6912 1.367 1.0754 0.2714 0.2614 0.5226 0.5227 0.7639 0.8041-0.551-0.8489-1.2289-1.6082-2.0103-2.2514-0.0421-0.0333-0.0772-0.0746-0.1032-0.1216-0.0259-0.047-0.0422-0.0988-0.0478-0.1522s-5e-4 -0.1073 0.0151-0.1587 0.0413-0.0992 0.0756-0.1404c0.2946 0.12 0.5718 0.2789 0.8242 0.4724 0.8067 0.58 1.49 1.3146 2.0103 2.161-0.1328-0.6812-0.4652-1.3075-0.9549-1.7992-0.1106-0.1106-0.2111-0.2312-0.3116-0.3417 0.8213 0.3105 1.6038 0.7153 2.3319 1.2061 0.435 0.3101 0.8511 0.6457 1.2463 1.0051 1.2077 1.1627 2.7085 1.9756 4.3421 2.352 1.0371 0.1961 2.1088 0.0879 3.0858-0.3116 0.3918-0.2391 0.7316-0.5545 0.9992-0.9274 0.2676-0.373 0.4576-0.7959 0.5587-1.2436 0.0775 0.0475 0.1456 0.1088 0.201 0.1809zm-0.5026-0.6232c0.0604 0.3015 0.0704 0.6433-0.5628 1.1257-0.6332 0.4825-2.744 0.5428-3.719 0.2815-0.8178-0.3094-1.5586-0.793-2.171-1.4172-0.365-0.4259-0.7008-0.8758-1.0051-1.3469 1.3654 0.2182 2.7501 0.2923 4.131 0.2211 0.5032 0.2969 0.9519 0.6776 1.3268 1.1258-0.1616-0.4476-0.4268-0.8506-0.774-1.176 0.4551-0.0633 0.9028-0.1711 1.3368-0.3217 0.6543 0.2953 1.1692 0.8318 1.4373 1.4977v0.01zm-1.1558-8.4832c-0.2035-0.0034-0.4033-0.0551-0.583-0.1508-0.0504-0.0265-0.0933-0.0653-0.1249-0.1127s-0.0509-0.1019-0.056-0.1586c0.0214-0.1153 0.0753-0.222 0.1555-0.3075s0.1832-0.1462 0.2968-0.175c0.4976-0.1294 1.0201-0.1294 1.5177 0 0.4825 0.2211 1.1458 0.583 1.0554 1.1961 0 0.1407-0.4121 0.3116-0.5327 0.3719-0.2445 0.115-0.5198 0.1468-0.784 0.0905-0.201-0.0503-0.4523-0.191-0.3116-0.4222 0.4563-0.2243 0.9807-0.2674 1.4675-0.1206-0.5026-0.6232-1.4173-0.191-2.1007-0.2111zm4.6838 2.4424c-0.0361-0.0103-0.0744-0.0103-0.1105 0-0.0431-0.0013-0.086 6e-3 -0.1262 0.0216-0.0402 0.0155-0.0769 0.039-0.1078 0.069s-0.0555 0.0659-0.0723 0.1056-0.0255 0.0824-0.0254 0.1255c0 0.088 0.0349 0.1723 0.0971 0.2345s0.1466 0.0972 0.2346 0.0972c-0.1174 0.5337-0.3247 1.0435-0.6132 1.5077-0.0174 0.0403-0.0411 0.0777-0.0703 0.1105-0.0301-0.0345-0.0671-0.0622-0.1087-0.0813s-0.0868-0.029-0.1326-0.0292c-0.0879 0-0.1723 0.0349-0.2345 0.0971s-0.0971 0.1466-0.0971 0.2345c-6e-4 0.057 0.0141 0.1131 0.0423 0.1625 0.0283 0.0494 0.0691 0.0905 0.1185 0.119 0 0.0502-0.1005 0.1105-0.1608 0.1608-0.2226 0.1732-0.4657 0.3184-0.7237 0.4322-0.6895 0.2632-1.4479 0.2845-2.151 0.0603 0.1252-0.8327 0.2057-1.6715 0.2412-2.5128l0.2312-0.1407c0.2338 0.1667 0.5175 0.2482 0.8041 0.2312-0.2285-0.0566-0.4371-0.1748-0.6031-0.3418 0.0557-0.0263 0.1095-0.0565 0.1609-0.0904 0.2151-0.1342 0.4141-0.2928 0.593-0.4724 0.151 0.1115 0.3252 0.1876 0.5097 0.2224s0.3744 0.0275 0.5557-0.0214c-0.3341-0.0212-0.6488-0.1643-0.8845-0.4021 0.287-0.3163 0.5056-0.6885 0.6422-1.0932 0.1367-0.4047 0.1883-0.8332 0.1518-1.2587-0.0987-0.2582-0.2497-0.4931-0.4434-0.6903-0.1937-0.1971-0.426-0.3522-0.6823-0.4556-0.6588-0.2932-1.3851-0.4009-2.1007-0.3116-0.7077 0.0267-1.398 0.2269-2.0102 0.583-0.264 0.1787-0.475 0.4251-0.6112 0.7133-0.1361 0.2882-0.1924 0.6077-0.1628 0.9251 0.058 0.3058 0.1768 0.5969 0.3495 0.8559 0.1726 0.259 0.3956 0.4806 0.6557 0.6517-0.0948 0.1588-0.2199 0.2973-0.3682 0.4077s-0.317 0.1904-0.4962 0.2356c0.2098 0.0229 0.422-0.0075 0.617-0.0883s0.3665-0.2095 0.4986-0.3741l0.3116 0.2312c0.2215 0.1562 0.4532 0.2972 0.6936 0.4222-0.0552 0.2206-0.1599 0.4258-0.3062 0.6-0.1463 0.1741-0.3303 0.3127-0.5381 0.4051 0.2458-0.02 0.4807-0.1101 0.6767-0.2598 0.1961-0.1497 0.3449-0.3526 0.4289-0.5845l0.5226 0.2312c0.0013 0.5641-0.163 1.1163-0.4724 1.5881-0.5647 0.7137-1.3882 1.176-2.2916 1.2865-0.9258 0.1528-1.8736 0.1044-2.7789-0.1419-0.9054-0.2463-1.7471-0.6847-2.4678-1.2854-0.3501-0.3581-0.7454-0.669-1.176-0.9247 0.2346 0.6167 0.5525 1.1983 0.9448 1.7288 0.392 0.5428 0.784 1.0856 1.2061 1.6082 0.5492 0.8038 1.2286 1.5104 2.0103 2.0907 0.2719 0.1997 0.5612 0.3746 0.8644 0.5226 0.4863 0.2498 0.9987 0.4453 1.5277 0.583l0.2915 0.0704c0.3106 0.0691 0.6269 0.1095 0.9448 0.1206 0.6341 0.0024 1.2614-0.1313 1.8394-0.392-0.1824 0.2805-0.4614 0.4843-0.784 0.5729-0.9657 0.2503-1.9793 0.2503-2.945 0-0.3209-0.0592-0.6368-0.1432-0.9448-0.2513-1.6182-0.5327-2.6636-2.0102-4.6436-3.337-0.4827-0.2873-0.9907-0.5295-1.5178-0.7237-1.8495-0.5312-3.4472-1.708-4.5029-3.3169-0.3142-0.4391-0.5426-0.9335-0.6734-1.4574-0.4121-1.6886 0.1306-3.4978 0.0904-6.7544v-1.4574c0-1.4876-0.211-3.1058 0.583-4.4527 0.1113-0.13298 0.2359-0.25422 0.3719-0.36184 3.0758-2.1057 6.845-2.9446 10.524-2.3419 1.0409 0.19188 2.0221 0.62569 2.8646 1.2664 0.4389 0.33006 0.84 0.7076 1.1961 1.1257 0.3633 0.4206 0.6646 0.89108 0.8945 1.3971 0.1185 0.25526 0.2226 0.51701 0.3116 0.78399 0.0938 0.26133 0.1742 0.52266 0.2412 0.78399-0.4157-0.49117-0.8767-0.94211-1.377-1.3469 0-0.59301-0.5327-0.94481-1.0051-1.1056-0.3233-0.12566-0.6819-0.12566-1.0051 0 6e-4 0.01188-1e-3 0.02378-5e-3 0.03501-0.0039 0.01122-0.01 0.02157-0.018 0.03043-0.0079 0.00887-0.0175 0.01609-0.0282 0.02124-0.0107 0.00516-0.0224 0.00815-0.0343 0.00881-0.0118 6.6e-4 -0.0237-0.00103-0.035-0.00496-0.0112-0.00394-0.0215-0.01005-0.0304-0.01798s-0.0161-0.01754-0.0212-0.02826c-0.0052-0.01072-0.0082-0.02235-0.0088-0.03423v-0.20103l-0.2915 0.12062c-0.1033 0.05768-0.2009 0.12499-0.2915 0.20102-0.201 0.17087-0.4423 0.54276-0.2211 0.78399 0.0759 0.08206 0.18 0.13233 0.2914 0.14072 0.3218 0.05073 0.6381 0.13149 0.9449 0.24123 0.0044 0.00942 0.0067 0.01972 0.0067 0.03015s-0.0023 0.02073-0.0067 0.03015c-0.0695 0.08131-0.1469 0.15539-0.2312 0.22113l-0.201 0.28143c-0.1244 0.13719-0.2262 0.29325-0.3016 0.46236 0 0.07036-0.1507 0.38194 0 0.37189 0.1508-0.01005 0.191-0.16082 0.2412-0.22113 0.0503-0.0603 0.191-0.23117 0.2915-0.35179 0.1777-0.25108 0.4261-0.44354 0.7137-0.55281 0.3783-0.04316 0.7614 0.01079 1.1131 0.15675 0.3518 0.14596 0.6605 0.37913 0.8971 0.6775 0.7256 0.80657 1.1608 1.8326 1.2363 2.9148 0.0991 1.0067 0.0517 2.0224-0.1407 3.0154-1.3067-0.5227-2.945-0.5629-3.8898-1.7389-0.6114-1.1549-1.0065-2.4118-1.166-3.7088-0.1005-0.48245-0.211-1.0051-0.3115-1.4273-0.1412-0.47035-0.2223-0.95667-0.2413-1.4474v-0.40205c-0.1527 0.17275-0.2415 0.39277-0.2513 0.62317 0.0109 0.31338 0.0616 0.62411 0.1508 0.92471 0.2814 1.3469 0.4523 2.7339 0.8644 4.0204 0.1294 0.4139 0.2907 0.8172 0.4825 1.2062 0.1863 0.3608 0.4478 0.6776 0.7668 0.929s0.6881 0.4316 1.0826 0.5284c1.6283 0.4724 3.3772 0.9548 4.5331 2.2716 0.6126 0.8607 0.8945 1.9134 0.794 2.965zm1.7188-7.5685c-0.2944 1.104-0.6672 2.1856-1.1157 3.2365-0.4009-1.8851-1.0783-3.7005-2.0103-5.3874l-0.0904-0.18092-0.1608-0.36185c-0.5026-1.0956-1.0052-2.1811-1.5479-3.2867-0.0905-0.21108-0.191-0.4121-0.2915-0.62317-0.4285-0.73174-0.9871-1.379-1.6484-1.9097-0.4173-0.33864-0.9025-0.58385-1.4226-0.71909-0.5202-0.13524-1.0633-0.15737-1.5927-0.0649 0.4521-0.27543 0.9689-0.42694 1.4982-0.43929s1.0526 0.11489 1.5171 0.36893c1.015 0.73315 1.9696 1.5466 2.8545 2.4324 1.0832 0.84379 2.1074 1.7606 3.0657 2.744 0.5585 0.53267 0.9464 1.2191 1.1146 1.9724 0.1682 0.75328 0.1091 1.5396-0.1698 2.2592v-0.0402z" fill="#150B33"/>
<path d="m18.462 8.059c0.5528-0.08041 1.0955-0.25128 1.6483-0.35179h0.2111c0.4751-0.03501 0.9522-0.03501 1.4273 0 0.1159 0.02532 0.2359 0.02532 0.3518 0 0.3719-0.14072 0.1809-0.51261 0-0.73373-0.1643-0.18001-0.3719-0.31496-0.6031-0.392-0.475-0.15519-0.9829-0.18016-1.4708-0.07233-0.4879 0.10784-0.938 0.34454-1.3033 0.68545-0.1772 0.13876-0.3185 0.31799-0.4121 0.52266-0.0503 0.11057-0.0603 0.3719 0.1508 0.34174z" fill="#150B33"/>
<path d="m22.874 8.5213c-0.1467-0.12513-0.3049-0.23618-0.4724-0.33169-0.0882-0.06589-0.1892-0.11247-0.2966-0.13671-0.1074-0.02425-0.2186-0.02561-0.3266-0.00401 0 0 0.1006 0.06031 0.1408 0.09047l0.1507 0.10051c0.191 0.13066 0.382 0.29148 0.5629 0.4322 0.1809 0.14071 0.3618 0.26133 0.5227 0.4121l0.0603 0.0603c-0.0527-0.23588-0.1712-0.45199-0.3418-0.62317z" fill="#150B33"/>
<path d="m19.648 8.4509c0.1307-0.0603 0.3719-0.24122 0.5227-0.24122-0.5958 0.04726-1.1666 0.25957-1.6484 0.61312-0.5712 0.32745-1.0532 0.79016-1.4037 1.3475s-0.5588 1.1922-0.6066 1.8488c0 0 0 0.201 0.0603 0.1307 0.0603-0.0704 0.0503-0.2211 0.0704-0.2714 0.0485-0.1892 0.1124-0.374 0.191-0.5528 0.1497-0.357 0.342-0.6945 0.5729-1.0051 0.4648-0.62281 1.0407-1.1544 1.6986-1.568 0.1734-0.11348 0.3548-0.21426 0.5428-0.30154z" fill="#150B33"/>
<path d="m30.965 12.602c0.4995-0.4157 0.8161-1.0105 0.8818-1.657 0.0658-0.6464-0.1245-1.2929-0.53-1.8006-0.2199-0.27351-0.4985-0.4941-0.8151-0.64546-0.3166-0.15135-0.6632-0.22961-1.0142-0.22899-0.2072 0.05562-0.3995 0.15661-0.5629 0.29568s-0.2939 0.31273-0.3819 0.50841c-0.2177 0.49264-0.2926 1.0365-0.2161 1.5697 0.0764 0.5331 0.301 1.034 0.6483 1.4457 0.2086 0.3176 0.528 0.5461 0.896 0.6409s0.7581 0.049 1.0941-0.1283zm-1.0051-3.4878c0.8544-0.62317 1.769 0.87445 1.0051 1.4675-0.8744 0.4121-1.8092-0.8845-1.0352-1.4675h0.0301z" fill="#150B33"/>
<path d="m19.949 9.9184c-0.6128 0.33358-1.0845 0.87728-1.3283 1.5311s-0.2432 1.3736 0.0016 2.027c0.1408 0.2979 0.3426 0.5629 0.5924 0.7777 0.2498 0.2149 0.5419 0.3749 0.8574 0.4697 0.3156 0.0947 0.6475 0.1221 0.9744 0.0804 0.3268-0.0417 0.6412-0.1516 0.9228-0.3226 0.4391-0.3209 0.7703-0.7676 0.9498-1.281 0.1795-0.5133 0.1988-1.0691 0.0553-1.5937-0.3015-1.2262-1.7288-2.3319-3.0254-1.6886zm2.0103 2.3118c-0.1393 0.0562-0.2895 0.0804-0.4394 0.071-0.1499-0.0095-0.2958-0.0524-0.427-0.1257-0.1311-0.0733-0.2442-0.1751-0.3308-0.2978s-0.1446-0.2633-0.1698-0.4114c-0.0485-0.2024-0.0223-0.4155 0.0737-0.6001 0.096-0.1847 0.2554-0.3285 0.449-0.405 0.9448-0.3016 1.6785 1.2664 0.8342 1.769h0.0101z" fill="#150B33"/>
<path d="m21.396 18.442c-0.2013-0.0788-0.4174-0.1131-0.6332-0.1005-0.185 0.0129-0.365 0.0654-0.528 0.1538s-0.3051 0.2108-0.4168 0.3588c-0.1709 0.2292-0.2674 0.5054-0.2764 0.7912s0.07 0.5674 0.2261 0.807c0 0 0.0603 0.0703 0.0905 0.0703 0.0603-0.0603 0-0.201 0-0.2814-0.01-0.107-0.01-0.2147 0-0.3217 0.0318-0.2124 0.1108-0.4151 0.2312-0.593 0.1289-0.1917 0.3002-0.3513 0.5006-0.4663s0.4246-0.1825 0.6552-0.1971c0.0503 0 0.2614 0 0.2815-0.0703 0.0201-0.0704-0.0905-0.0905-0.1307-0.1508z" fill="#150B33"/>
<path d="m25.93 19.427c-0.0656 0-0.1297 0.0195-0.1843 0.0559-0.0545 0.0365-0.097 0.0883-0.1222 0.1489-0.0251 0.0606-0.0316 0.1273-0.0188 0.1916 0.0128 0.0644 0.0444 0.1235 0.0907 0.1699 0.0464 0.0463 0.1055 0.0779 0.1699 0.0907 0.0643 0.0128 0.131 0.0063 0.1916-0.0188s0.1124-0.0677 0.1489-0.1222c0.0364-0.0545 0.0559-0.1187 0.0559-0.1843 0-0.0879-0.035-0.1723-0.0972-0.2345s-0.1465-0.0972-0.2345-0.0972z" fill="#150B33"/>
<path d="m24.301 19.176c0.1832 0 0.3317-0.1485 0.3317-0.3317s-0.1485-0.3317-0.3317-0.3317-0.3317 0.1485-0.3317 0.3317 0.1485 0.3317 0.3317 0.3317z" fill="#150B33"/>
<path d="m24.623 20.864c-0.0431-1e-4 -0.0857 0.0086-0.1254 0.0254-0.0397 0.0167-0.0756 0.0413-0.1056 0.0723-0.03 0.0309-0.0535 0.0676-0.0691 0.1078-0.0155 0.0402-0.0228 0.0831-0.0215 0.1261 0 0.0853 0.0339 0.1672 0.0942 0.2275s0.1421 0.0942 0.2274 0.0942c0.0431 0.0013 0.086-6e-3 0.1262-0.0216 0.0402-0.0155 0.0769-0.039 0.1078-0.069s0.0555-0.0659 0.0723-0.1056 0.0255-0.0824 0.0254-0.1255c0-0.0879-0.0349-0.1723-0.0971-0.2345s-0.1466-0.0971-0.2346-0.0971z" fill="#150B33"/>
<path d="m27.065 21.528c0.1831 0 0.3317-0.1485 0.3317-0.3317 0-0.1831-0.1486-0.3316-0.3317-0.3316-0.1832 0-0.3317 0.1485-0.3317 0.3316 0 0.1832 0.1485 0.3317 0.3317 0.3317z" fill="#150B33"/>
<path d="m32.232 20.512c-0.088 0-0.1724 0.0349-0.2346 0.0971s-0.0971 0.1466-0.0971 0.2345c0 0.088 0.0349 0.1724 0.0971 0.2346s0.1466 0.0971 0.2346 0.0971 0.1723-0.0349 0.2345-0.0971 0.0972-0.1466 0.0972-0.2346c0-0.0879-0.035-0.1723-0.0972-0.2345s-0.1465-0.0971-0.2345-0.0971z" fill="#150B33"/>
<path d="m33.639 19.105c-0.043-0.0013-0.0859 6e-3 -0.1261 0.0215-0.0402 0.0156-0.0769 0.0391-0.1078 0.0691s-0.0555 0.0659-0.0723 0.1056-0.0255 0.0823-0.0254 0.1254c0 0.088 0.0349 0.1724 0.0971 0.2346s0.1466 0.0971 0.2345 0.0971c0.088 0 0.1724-0.0349 0.2346-0.0971s0.0971-0.1466 0.0971-0.2346c1e-4 -0.0431-0.0086-0.0857-0.0254-0.1254s-0.0414-0.0756-0.0723-0.1056-0.0676-0.0535-0.1078-0.0691c-0.0402-0.0155-0.0831-0.0228-0.1262-0.0215z" fill="#150B33"/>
<path d="m46.243 42.756c-0.0956 0.0082-0.1917-0.0078-0.2795-0.0464-0.0878-0.0387-0.1645-0.0987-0.223-0.1747-0.1057-0.1858-0.1414-0.4033-0.1006-0.6131l1.0052-6.3524c0.0201-0.2025 0.1172-0.3896 0.2713-0.5226 0.1572-0.1228 0.3539-0.1836 0.5529-0.1709h2.3218c0.7145-0.0606 1.4272 0.1354 2.0102 0.5528 0.2258 0.2003 0.4036 0.4489 0.5202 0.7273 0.1165 0.2784 0.1689 0.5795 0.1532 0.8809 0.0234 0.3719-0.0347 0.7445-0.1701 1.0916-0.1354 0.3472-0.3449 0.6607-0.6139 0.9186-0.641 0.5222-1.4567 0.7809-2.2816 0.7237h-2.0102l-0.3618 2.2917c-0.018 0.2017-0.1071 0.3905-0.2513 0.5327-0.1541 0.1202-0.348 0.1777-0.5428 0.1608zm1.3569-4.1511h1.8595c0.4357 0.0286 0.8663-0.1077 1.2061-0.382 0.1441-0.1438 0.2555-0.3171 0.3266-0.5079 0.0711-0.1907 0.1003-0.3946 0.0855-0.5977 0.0132-0.163-0.0118-0.3269-0.0728-0.4787-0.0611-0.1517-0.1566-0.2872-0.279-0.3957-0.3205-0.2119-0.7024-0.3109-1.0855-0.2815h-1.6182l-0.4222 2.6435z" fill="#FA6C41"/>
<path d="m56.897 42.625c-0.1051 0.0171-0.2129 0.0069-0.3129-0.0295-0.1001-0.0365-0.1892-0.0979-0.2587-0.1786-0.0696-0.0806-0.1173-0.1777-0.1386-0.2821-0.0214-0.1043-0.0156-0.2124 0.0166-0.3138l1.0052-6.3021c0.0163-0.1964 0.106-0.3794 0.2512-0.5126 0.1572-0.1228 0.3539-0.1836 0.5529-0.1709h3.8998c0.1556-0.0133 0.3112 0.0256 0.4423 0.1105 0.0521 0.0401 0.0939 0.092 0.1218 0.1514 0.028 0.0595 0.0414 0.1247 0.039 0.1904 0.0069 0.0911-0.0067 0.1826-0.0397 0.2679-0.0331 0.0852-0.0848 0.1619-0.1513 0.2246-0.0624 0.0605-0.1365 0.1077-0.2177 0.1388s-0.1678 0.0455-0.2547 0.0421h-3.3671l-0.3418 2.1409h3.0154c0.1567-0.0103 0.3124 0.0322 0.4422 0.1206 0.0501 0.039 0.09 0.0895 0.1163 0.1473 0.0262 0.0578 0.0381 0.1211 0.0345 0.1844 0.0057 0.0917-0.0074 0.1836-0.0385 0.27s-0.0796 0.1656-0.1424 0.2326c-0.0651 0.059-0.1413 0.1045-0.2241 0.1338-0.0828 0.0294-0.1707 0.0419-0.2584 0.037h-3.1159l-0.3718 2.2716h3.2465c0.1662-0.0103 0.3315 0.0319 0.4724 0.1206 0.0503 0.0411 0.0901 0.0935 0.1163 0.1528 0.0262 0.0594 0.038 0.1242 0.0345 0.189 0.0092 0.0898-0.0015 0.1806-0.0315 0.2658-0.0299 0.0852-0.0783 0.1627-0.1417 0.2271-0.0633 0.0643-0.1402 0.1139-0.2249 0.1451-0.0848 0.0312-0.1753 0.0433-0.2653 0.0354l-3.9099-0.0101z" fill="#FA6C41"/>
<path d="m68.526 42.756c-0.0943 0.0093-0.1893-0.0062-0.2757-0.045s-0.1612-0.0995-0.2168-0.1761c-0.0571-0.0902-0.0955-0.191-0.1127-0.2963-0.0173-0.1054-0.0132-0.2131 0.0122-0.3168l0.9247-5.8699h-2.0103c-0.1678 0.0119-0.3345-0.0343-0.4724-0.1307-0.0529-0.0416-0.0951-0.0952-0.123-0.1564-0.028-0.0612-0.041-0.1282-0.0378-0.1954-0.0064-0.0941 0.0073-0.1885 0.0402-0.2769s0.0843-0.1687 0.1508-0.2357c0.1408-0.1246 0.3247-0.1895 0.5126-0.1809h5.6186c0.1631-0.0103 0.3251 0.032 0.4624 0.1206 0.0554 0.0399 0.1 0.0929 0.1298 0.1543s0.0439 0.1293 0.041 0.1975c6e-3 0.0956-0.0079 0.1914-0.0407 0.2813-0.0329 0.09-0.0841 0.1721-0.1502 0.2414-0.0707 0.0634-0.1534 0.112-0.2431 0.1431-0.0898 0.0311-0.1848 0.0439-0.2796 0.0378h-2.1811l-1.0051 6.0307c-0.0192 0.1994-0.1041 0.3867-0.2413 0.5327-0.1465 0.1029-0.3238 0.1526-0.5025 0.1407z" fill="#FA6C41"/>
<path d="m78.759 42.776c-0.313 0.0016-0.6256-0.0219-0.9348-0.0703-0.3046-0.0394-0.6044-0.1101-0.8945-0.2111-0.2869-0.0952-0.5631-0.2198-0.8242-0.3719-0.1275-0.0629-0.2275-0.1701-0.2815-0.3015-0.0349-0.1215-0.0349-0.2504 0-0.3719 0.0186-0.1194 0.0709-0.231 0.1508-0.3217 0.0381-0.0476 0.0853-0.0872 0.1387-0.1165 0.0535-0.0294 0.1122-0.0478 0.1729-0.0543 0.147-0.0203 0.2964 0.0118 0.4221 0.0904 0.3369 0.1959 0.7036 0.3351 1.0856 0.4121 0.3733 0.0798 0.754 0.1203 1.1357 0.1206 0.425 0.0214 0.8471-0.0798 1.2162-0.2914 0.1384-0.0811 0.2531-0.1972 0.3325-0.3365 0.0794-0.1394 0.1207-0.2972 0.1198-0.4576 1e-3 -0.1147-0.0218-0.2283-0.0667-0.3338-0.045-0.1055-0.1112-0.2006-0.1946-0.2793-0.2695-0.2014-0.583-0.3357-0.9146-0.392l-1.2062-0.2814c-0.4829-0.0988-0.9266-0.3363-1.2765-0.6835-0.1628-0.1747-0.2887-0.3805-0.3698-0.605-0.0812-0.2246-0.1161-0.4633-0.1026-0.7017-1e-4 -0.3494 0.0825-0.6938 0.2412-1.0051 0.1646-0.3046 0.3946-0.5689 0.6735-0.7739 0.3032-0.2202 0.6437-0.3836 1.0051-0.4825 0.3888-0.111 0.7917-0.1652 1.1961-0.1608 0.4204 0.0028 0.839 0.0568 1.2463 0.1608 0.4307 0.0989 0.8395 0.2761 1.2062 0.5227 0.115 0.0697 0.2035 0.1758 0.2512 0.3015 0.0347 0.1181 0.0347 0.2437 0 0.3618-0.0187 0.1164-0.0711 0.2247-0.1507 0.3116-0.0878 0.0812-0.2021 0.1276-0.3217 0.1307-0.1637 4e-3 -0.3249-0.0416-0.4623-0.1307-0.2716-0.1616-0.5666-0.2803-0.8745-0.3518-0.3285-0.0831-0.6663-0.1236-1.0051-0.1206-0.2951-0.0051-0.5885 0.0461-0.8644 0.1508-0.2294 0.0747-0.4343 0.2102-0.593 0.392-0.1406 0.1691-0.2155 0.3832-0.2111 0.6031-9e-3 0.1168 8e-3 0.2341 0.0497 0.3436s0.1071 0.2084 0.1915 0.2896c0.2092 0.1742 0.4575 0.2949 0.7237 0.3518l1.2062 0.2814c0.5522 0.1054 1.064 0.363 1.4775 0.7438 0.3201 0.3274 0.4972 0.7684 0.4925 1.2262 0.0025 0.3654-0.0886 0.7253-0.2645 1.0455-0.176 0.3202-0.4309 0.59-0.7406 0.7839-0.3082 0.2067-0.6476 0.3628-1.0051 0.4623-0.3856 0.0883-0.7806 0.1288-1.176 0.1206z" fill="#FA6C41"/>
<path d="m95.363 42.776c-0.3129 0.0016-0.6255-0.0219-0.9347-0.0703-0.3045-0.0405-0.6041-0.1112-0.8946-0.2111-0.286-0.0972-0.562-0.2217-0.8242-0.3719-0.1253-0.0657-0.2245-0.172-0.2814-0.3015-0.0349-0.1215-0.0349-0.2504 0-0.3719 0.0185-0.1194 0.0708-0.231 0.1508-0.3217 0.0783-0.0945 0.1897-0.1556 0.3115-0.1708 0.1471-0.0221 0.2971 0.0101 0.4222 0.0904 0.3376 0.1943 0.7041 0.3334 1.0855 0.4121 0.3589 0.0902 0.7259 0.144 1.0956 0.1608 0.428 0.0199 0.853-0.0811 1.2262-0.2914 0.1359-0.0831 0.248-0.1999 0.3255-0.339 0.0774-0.1391 0.1177-0.2959 0.1168-0.4551 9e-4 -0.1147-0.0218-0.2283-0.0668-0.3338-0.0449-0.1055-0.1112-0.2006-0.1945-0.2793-0.2666-0.1999-0.5765-0.3342-0.9046-0.392l-1.2062-0.2814c-0.4977-0.1062-0.9526-0.3581-1.3066-0.7237-0.161-0.1759-0.2856-0.382-0.3667-0.6062-0.081-0.2242-0.117-0.4623-0.1057-0.7005-2e-4 -0.3494 0.0825-0.6938 0.2412-1.0051 0.1676-0.3024 0.3971-0.5661 0.6734-0.7739 0.3038-0.2192 0.6441-0.3826 1.0051-0.4825 0.3855-0.111 0.785-0.1652 1.1861-0.1608 0.4205 0.0022 0.8391 0.0562 1.2463 0.1608 0.4307 0.0989 0.8395 0.2761 1.2062 0.5227 0.115 0.0696 0.2034 0.1758 0.2512 0.3015 0.0347 0.1181 0.0347 0.2437 0 0.3618-0.0268 0.1157-0.0821 0.2228-0.1608 0.3116-0.0867 0.0828-0.2017 0.1295-0.3216 0.1307-0.1636 0.0027-0.3244-0.0427-0.4624-0.1307-0.2716-0.1616-0.5665-0.2803-0.8744-0.3518-0.3089-0.0783-0.6262-0.1188-0.9448-0.1206-0.2984-0.0049-0.595 0.0462-0.8745 0.1508-0.2294 0.0747-0.4343 0.2102-0.593 0.392-0.1406 0.1691-0.2155 0.3832-0.2111 0.6031-7e-3 0.1175 0.0119 0.2351 0.0553 0.3445s0.1103 0.208 0.196 0.2887c0.2054 0.1741 0.4505 0.2949 0.7136 0.3518l1.2062 0.2814c0.5522 0.1054 1.064 0.363 1.4775 0.7438 0.1608 0.1604 0.2873 0.3518 0.372 0.5626s0.1257 0.4366 0.1205 0.6636c0.0052 0.3704-0.0811 0.7364-0.2513 1.0655-0.1712 0.3064-0.4122 0.5681-0.7036 0.7639-0.3097 0.204-0.6486 0.3599-1.0051 0.4623-0.3921 0.0899-0.7939 0.1304-1.1961 0.1206z" fill="#FA6C41"/>
<path d="m103.47 42.756c-0.095 0.0091-0.192-0.0064-0.28-0.0451s-0.164-0.0993-0.222-0.176c-0.058-0.0917-0.096-0.1946-0.112-0.302-0.015-0.1073-8e-3 -0.2168 0.021-0.3212l1.006-6.4227c0.022-0.2004 0.111-0.3877 0.251-0.5327 0.158-0.1203 0.354-0.1808 0.553-0.1709 0.096-0.0111 0.193 0.0035 0.281 0.0424 0.088 0.0388 0.165 0.1006 0.221 0.1788 0.108 0.1851 0.14 0.4047 0.091 0.6131l-0.402 2.5027h4.02l0.422-2.6334c0.023-0.2004 0.111-0.3877 0.252-0.5327 0.154-0.1204 0.347-0.181 0.542-0.1709 0.097-0.0101 0.194 0.0039 0.283 0.0407 0.09 0.0369 0.169 0.0954 0.23 0.1704 0.107 0.189 0.14 0.4115 0.09 0.6232l-1.005 6.4126c-0.02 0.204-0.109 0.3952-0.251 0.5428-0.154 0.129-0.352 0.1937-0.553 0.1809-0.097 0.0109-0.196-0.0037-0.286-0.0425-0.089-0.0388-0.168-0.1003-0.226-0.1786-0.105-0.1903-0.133-0.4127-0.081-0.6232l0.412-2.6032h-4.02l-0.432 2.7238c-0.018 0.2028-0.103 0.3938-0.242 0.5428-0.157 0.1315-0.359 0.1964-0.563 0.1809z" fill="#FA6C41"/>
<path d="m118.41 42.776c-0.626 0.017-1.248-0.1211-1.809-0.402-0.508-0.2571-0.926-0.6641-1.196-1.166-0.303-0.568-0.452-1.2057-0.432-1.8494-4e-3 -0.6208 0.091-1.2382 0.281-1.8293 0.176-0.5365 0.452-1.0346 0.815-1.4675 0.35-0.4117 0.79-0.7382 1.286-0.9548 0.535-0.236 1.114-0.3527 1.699-0.3418 0.629-0.0161 1.252 0.1183 1.819 0.392 0.506 0.2602 0.923 0.6664 1.196 1.166 0.296 0.5669 0.441 1.2002 0.422 1.8393 9e-3 0.6278-0.086 1.2526-0.281 1.8495-0.176 0.5334-0.452 1.0282-0.814 1.4574-0.345 0.4262-0.782 0.7697-1.277 1.0051-0.541 0.2237-1.124 0.3266-1.709 0.3015zm0-1.2162c0.505 0.0177 1-0.1345 1.408-0.4322 0.398-0.3129 0.7-0.7306 0.874-1.2061 0.209-0.5519 0.312-1.1386 0.302-1.7288 0.047-0.6044-0.144-1.2032-0.533-1.6685-0.193-0.1856-0.422-0.3296-0.672-0.423-0.251-0.0934-0.518-0.1341-0.785-0.1198-0.502-0.0177-0.994 0.1346-1.398 0.4322-0.399 0.3033-0.702 0.715-0.874 1.1861-0.207 0.5558-0.306 1.146-0.292 1.7388-0.049 0.6061 0.138 1.2076 0.523 1.6786 0.196 0.1839 0.427 0.3268 0.679 0.42s0.52 0.1349 0.789 0.1227h-0.021z" fill="#FA6C41"/>
<path d="m127.34 42.756c-0.094 0.0093-0.189-0.0062-0.276-0.045-0.086-0.0388-0.161-0.0995-0.217-0.1761-0.057-0.0902-0.095-0.191-0.112-0.2963-0.018-0.1054-0.013-0.2131 0.012-0.3168l1.005-6.3524c6e-3 -0.1002 0.032-0.1982 0.077-0.288 0.045-0.0899 0.108-0.1697 0.184-0.2346 0.157-0.1228 0.354-0.1836 0.553-0.1709h2.322c0.714-0.0606 1.427 0.1354 2.01 0.5528 0.226 0.2003 0.404 0.4489 0.52 0.7273 0.117 0.2784 0.169 0.5795 0.154 0.8809 0.023 0.3719-0.035 0.7445-0.17 1.0916-0.136 0.3472-0.345 0.6607-0.614 0.9186-0.641 0.5222-1.457 0.7809-2.282 0.7237h-1.96l-0.372 2.2917c-0.015 0.2004-0.1 0.389-0.241 0.5327-0.083 0.0649-0.179 0.1125-0.28 0.1401-0.102 0.0276-0.208 0.0347-0.313 0.0207zm1.327-4.1511h1.859c0.436 0.0307 0.867-0.1059 1.206-0.382 0.146-0.1433 0.259-0.3162 0.331-0.507 0.073-0.1907 0.104-0.3948 0.091-0.5986 0.017-0.1643-8e-3 -0.33-0.071-0.4825s-0.163-0.2871-0.29-0.3919c-0.318-0.2104-0.696-0.3094-1.076-0.2815h-1.628l-0.422 2.6435z" fill="#FA6C41"/>
<path d="m54.218 8.1598c1.6133 0 2.86 0.32666 3.74 0.98 0.8933 0.64 1.34 1.5866 1.34 2.84 0 0.9067-0.2067 1.76-0.62 2.56-0.4134 0.8-1.0734 1.46-1.98 1.98-0.9067 0.5067-2.0667 0.76-3.48 0.76h-1.56l-0.66 4.72h-2.92l1.94-13.84h4.2zm-1 6.96c1.1066 0 1.8866-0.2933 2.34-0.88 0.4666-0.6 0.7-1.32 0.7-2.16 0-1.2-0.7667-1.8-2.3-1.8h-1.34l-0.66 4.84h1.26zm15.453-1.18c0 1.3467-0.6267 2.3334-1.88 2.96-1.24 0.6134-2.8867 1.02-4.94 1.22 0.0666 1.3734 0.7266 2.06 1.98 2.06 0.4666 0 0.9133-0.08 1.34-0.24 0.4266-0.16 0.8933-0.4066 1.4-0.74l1.04 1.72c-1.2934 0.9334-2.6667 1.4-4.12 1.4-1.4534 0-2.5667-0.3933-3.34-1.18-0.76-0.8-1.14-1.8866-1.14-3.26 0-1.0666 0.2-2.12 0.6-3.16s1.04-1.9066 1.92-2.6c0.88-0.6933 2-1.04 3.36-1.04 1.2 0 2.1266 0.2734 2.78 0.82 0.6666 0.5334 1 1.2134 1 2.04zm-6.68 2.38c1.32-0.1066 2.2866-0.3533 2.9-0.74 0.6266-0.4 0.94-0.9066 0.94-1.52 0-0.28-0.0934-0.52-0.28-0.72-0.1734-0.2-0.46-0.3-0.86-0.3-0.76 0-1.36 0.3134-1.8 0.94-0.44 0.6267-0.74 1.4067-0.9 2.34zm10.926 2.34c-0.0266 0.2667-0.04 0.4334-0.04 0.5 0 0.32 0.0667 0.5467 0.2 0.68 0.1334 0.1334 0.3334 0.2 0.6 0.2 0.3467 0 0.7734-0.12 1.28-0.36l0.76 1.86c-0.4133 0.2534-0.8666 0.4467-1.36 0.58-0.48 0.1334-0.9466 0.2-1.4 0.2-0.9466 0-1.6733-0.2466-2.18-0.74-0.4933-0.5066-0.74-1.2266-0.74-2.16 0-0.24 0.02-0.5 0.06-0.78l0.74-5.22h-1.56l0.28-2.02h1.68l0.66-2.38 2.38-0.28-0.36 2.66h2.44l-0.58 2.02h-2.14l-0.72 5.24zm12.282-7.26-0.26 2.04-5.58 6.36h4.76l-0.58 2.2h-7.96l0.26-2.04 5.6-6.38h-4.26l0.32-2.18h7.7zm8.7462 0-0.26 2.04-5.58 6.36h4.76l-0.58 2.2h-7.96l0.26-2.04 5.6-6.38h-4.26l0.32-2.18h7.7zm3.2863 7.94-0.02 0.22c0 0.32 0.1533 0.48 0.46 0.48 0.1733 0 0.36-0.0333 0.56-0.1l0.38 2c-0.6133 0.2534-1.24 0.38-1.88 0.38-0.76 0-1.3467-0.1933-1.76-0.58-0.4-0.4-0.6-0.98-0.6-1.74 0-0.2133 0.02-0.44 0.06-0.68l1.72-12.14 2.82-0.32-1.74 12.48zm12.124-5.4c0 1.3467-0.627 2.3334-1.88 2.96-1.24 0.6134-2.887 1.02-4.94 1.22 0.066 1.3734 0.726 2.06 1.98 2.06 0.466 0 0.913-0.08 1.34-0.24 0.426-0.16 0.893-0.4066 1.4-0.74l1.04 1.72c-1.294 0.9334-2.667 1.4-4.12 1.4-1.454 0-2.567-0.3933-3.34-1.18-0.76-0.8-1.1403-1.8866-1.1403-3.26 0-1.0666 0.2-2.12 0.6003-3.16 0.4-1.04 1.04-1.9066 1.92-2.6 0.88-0.6933 2-1.04 3.36-1.04 1.2 0 2.126 0.2734 2.78 0.82 0.666 0.5334 1 1.2134 1 2.04zm-6.68 2.38c1.32-0.1066 2.286-0.3533 2.9-0.74 0.626-0.4 0.94-0.9066 0.94-1.52 0-0.28-0.094-0.52-0.28-0.72-0.174-0.2-0.46-0.3-0.86-0.3-0.76 0-1.36 0.3134-1.8 0.94-0.44 0.6267-0.74 1.4067-0.9 2.34z" fill="#000"/>
</g>
</g>
</g>
<defs>
<clipPath id="c">
<rect transform="translate(0 .41)" width="162" height="45.17" fill="#fff"/>
</clipPath>
<clipPath id="b">
<rect transform="translate(0 .41)" width="162" height="45.17" fill="#fff"/>
</clipPath>
<clipPath id="a">
<rect transform="translate(.0075989 .41)" width="161.98" height="45.17" fill="#fff"/>
</clipPath>
</defs>
</svg>
