<?xml version="1.0" encoding="UTF-8"?>
<svg fill="none" viewBox="0 0 81 31" xmlns="http://www.w3.org/2000/svg">
<rect x="7.72" y=".53" width="72.97" height="30" rx="6" fill="#E53E3E"/>
<mask id="a" fill="white">
<path d="m0.72 8.53h7v14h-7v-14z"/>
</mask>
<g clip-path="url(#b)" mask="url(#a)" data-figma-skip-parse="true">
<g transform="matrix(.007 0 0 .007 7.72 15.53)" fill="url(#c)" shape-rendering="crispEdges">
<rect width="1142.9" height="1142.9"/>
<rect transform="scale(1 -1)" width="1142.9" height="1142.9"/>
<rect transform="scale(-1 1)" width="1142.9" height="1142.9"/>
<rect transform="scale(-1)" width="1142.9" height="1142.9"/>
</g>
</g>
<path d="m7.72 8.53h7v-7h-7v7zm0 14v7h7v-7h-7zm-7-7h7v-14h-7v14zm0-7v14h14v-14h-14zm7 7h-7v14h7v-14z" mask="url(#a)" data-figma-gradient-fill='{"type":"GRADIENT_DIAMOND","stops":[{"color":{"r":0.89803922176361084,"g":0.24313725531101227,"b":0.24313725531101227,"a":1.0},"position":0.99999988079071045},{"color":{"r":0.0,"g":0.0,"b":0.0,"a":0.0},"position":1.0}],"stopsVar":[{"color":{"r":0.89803922176361084,"g":0.24313725531101227,"b":0.24313725531101227,"a":1.0},"position":0.99999988079071045},{"color":{"r":0.0,"g":0.0,"b":0.0,"a":0.0},"position":1.0}],"transform":{"m00":14.0,"m01":0.0,"m02":0.7200012207031250,"m10":0.0,"m11":14.0,"m12":8.5299987792968750},"opacity":1.0,"blendMode":"NORMAL","visible":true}'/>
<path d="m16.424 16.498v-1.952h5.104v1.952h-5.104zm8.054-7.008c0.7787 0 1.4453 0.13866 2 0.416 0.5653 0.2773 0.992 0.6507 1.28 1.12 0.2987 0.4693 0.448 0.9867 0.448 1.552 0 0.576-0.1173 1.1253-0.352 1.648s-0.6507 1.1253-1.248 1.808c-0.5973 0.672-1.4667 1.5253-2.608 2.56h4.432l-0.256 1.936h-7.04v-1.792c1.312-1.2907 2.2667-2.2613 2.864-2.912 0.5973-0.6613 1.0133-1.2107 1.248-1.648 0.2453-0.4373 0.368-0.8853 0.368-1.344 0-0.4373-0.128-0.7787-0.384-1.024-0.2453-0.256-0.5813-0.384-1.008-0.384-0.384 0-0.7253 0.0907-1.024 0.272-0.2987 0.1707-0.6133 0.4533-0.944 0.848l-1.488-1.184c0.448-0.5867 0.9813-1.0453 1.6-1.376 0.6293-0.33067 1.3333-0.496 2.112-0.496zm8.3456 0c1.3227 0 2.3307 0.48533 3.024 1.456 0.704 0.9707 1.056 2.368 1.056 4.192 0 1.8133-0.352 3.2107-1.056 4.192-0.6933 0.9813-1.7013 1.472-3.024 1.472-1.3226 0-2.336-0.4907-3.04-1.472-0.6933-0.9813-1.04-2.3787-1.04-4.192 0-1.824 0.3467-3.2213 1.04-4.192 0.704-0.97067 1.7174-1.456 3.04-1.456zm0 1.872c-0.3626 0-0.6506 0.1173-0.864 0.352-0.2133 0.2347-0.3733 0.624-0.48 1.168-0.096 0.544-0.144 1.296-0.144 2.256s0.048 1.7173 0.144 2.272c0.1067 0.544 0.2667 0.9333 0.48 1.168 0.2134 0.2347 0.5014 0.352 0.864 0.352 0.3627 0 0.6507-0.112 0.864-0.336 0.2134-0.2347 0.368-0.624 0.464-1.168 0.1067-0.5547 0.16-1.3173 0.16-2.288s-0.0533-1.728-0.16-2.272c-0.096-0.5547-0.2506-0.944-0.464-1.168-0.2133-0.224-0.5013-0.336-0.864-0.336zm13.695-2.352 1.552 0.992-7.408 11.168-1.552-0.992 7.408-11.168zm-6.512 0.48c0.5333 0 1.0133 0.11733 1.44 0.352 0.4373 0.2347 0.7787 0.5707 1.024 1.008 0.256 0.4373 0.384 0.944 0.384 1.52s-0.128 1.0827-0.384 1.52c-0.2453 0.4373-0.5867 0.7733-1.024 1.008-0.4267 0.2347-0.9067 0.352-1.44 0.352s-1.0187-0.1173-1.456-0.352c-0.4267-0.2453-0.768-0.5813-1.024-1.008-0.2453-0.4373-0.368-0.944-0.368-1.52s0.1227-1.0773 0.368-1.504c0.256-0.4373 0.5973-0.7733 1.024-1.008 0.4373-0.24534 0.9227-0.368 1.456-0.368zm0 1.52c-0.6933 0-1.04 0.4533-1.04 1.36 0 0.3947 0.0747 0.72 0.224 0.976 0.16 0.256 0.432 0.384 0.816 0.384 0.6827 0 1.024-0.4533 1.024-1.36s-0.3413-1.36-1.024-1.36zm7.12 4.048c0.5333 0 1.0133 0.1173 1.44 0.352 0.4373 0.2347 0.7787 0.5707 1.024 1.008 0.256 0.4267 0.384 0.928 0.384 1.504s-0.128 1.0827-0.384 1.52c-0.2453 0.4373-0.5867 0.7733-1.024 1.008-0.4267 0.2347-0.9067 0.352-1.44 0.352s-1.0187-0.1173-1.456-0.352-0.784-0.5707-1.04-1.008c-0.2453-0.4373-0.368-0.944-0.368-1.52s0.1227-1.0773 0.368-1.504c0.256-0.4373 0.6027-0.7733 1.04-1.008s0.9227-0.352 1.456-0.352zm0 1.52c-0.6933 0-1.04 0.448-1.04 1.344 0 0.3947 0.0747 0.7253 0.224 0.992 0.16 0.256 0.432 0.384 0.816 0.384 0.6827 0 1.024-0.4587 1.024-1.376 0-0.896-0.3413-1.344-1.024-1.344zm11.035-7.408c1.5786 0 2.8053 0.50666 3.68 1.52 0.8853 1.0133 1.328 2.4427 1.328 4.288 0 1.2053-0.2027 2.2453-0.608 3.12-0.3947 0.8747-0.9707 1.5467-1.728 2.016-0.7467 0.4587-1.6374 0.688-2.672 0.688-1.0347 0-1.9254-0.2293-2.672-0.688-0.7467-0.4587-1.3227-1.12-1.728-1.984-0.3947-0.8747-0.592-1.9253-0.592-3.152 0-1.1947 0.1973-2.2293 0.592-3.104 0.4053-0.8747 0.9813-1.5413 1.728-2 0.7466-0.46934 1.6373-0.704 2.672-0.704zm0 1.92c-0.7574 0-1.3227 0.3093-1.696 0.928-0.3627 0.608-0.544 1.5947-0.544 2.96s0.1866 2.3573 0.56 2.976c0.3733 0.6187 0.9333 0.928 1.68 0.928 0.768 0 1.3333-0.304 1.696-0.912 0.3733-0.6187 0.56-1.616 0.56-2.992s-0.1867-2.368-0.56-2.976c-0.3734-0.608-0.9387-0.912-1.696-0.912zm9.6225-0.832c-0.3627 0-0.624 0.0853-0.784 0.256s-0.24 0.4587-0.24 0.864v0.656h2l-0.272 1.76h-1.728v6.736h-2.528v-6.736h-1.28v-1.76h1.28v-0.752c0-0.8533 0.2773-1.5467 0.832-2.08 0.5653-0.544 1.3706-0.816 2.416-0.816 0.8426 0 1.616 0.18133 2.32 0.544l-0.688 1.648c-0.4267-0.2133-0.8694-0.32-1.328-0.32zm4.9031 0c-0.3627 0-0.624 0.0853-0.784 0.256s-0.24 0.4587-0.24 0.864v0.656h2l-0.272 1.76h-1.728v6.736h-2.528v-6.736h-1.28v-1.76h1.28v-0.752c0-0.8533 0.2773-1.5467 0.832-2.08 0.5653-0.544 1.3707-0.816 2.416-0.816 0.8427 0 1.616 0.18133 2.32 0.544l-0.688 1.648c-0.4267-0.2133-0.8693-0.32-1.328-0.32z" fill="#fff"/>
<defs>
<clipPath id="b">
<path d="m7.72 8.53h7v-7h-7v7zm0 14v7h7v-7h-7zm-7-7h7v-14h-7v14zm0-7v14h14v-14h-14zm7 7h-7v14h7v-14z" mask="url(#a)"/>
</clipPath>
<linearGradient id="c" x2="500" y2="500" gradientUnits="userSpaceOnUse">
<stop stop-color="#E53E3E" offset="1"/>
<stop stop-opacity="0" offset="1"/>
</linearGradient>
</defs>
</svg>
